<svg width="24" height="24" viewBox="0 0 24 24" fill="none" xmlns="http://www.w3.org/2000/svg">
<path d="M10.875 0.75C10.667 0.75 10.5 0.918457 10.5 1.125V18.2197L3.64014 11.3599C3.49365 11.2134 3.25635 11.2134 3.10986 11.3599L1.60986 12.8599C1.46338 13.0063 1.46338 13.2437 1.60986 13.3901L11.7349 23.5151C11.8081 23.5884 11.9033 23.625 12 23.625C12.0967 23.625 12.1919 23.5884 12.2651 23.5151L22.3901 13.3901C22.5366 13.2437 22.5366 13.0063 22.3901 12.8599L20.8901 11.3599C20.7437 11.2134 20.5063 11.2134 20.3599 11.3599L13.5 18.2197V1.125C13.5 0.918457 13.333 0.75 13.125 0.75H10.875ZM11.25 1.5H12.75V19.125C12.75 19.2759 12.8408 19.4136 12.9814 19.4707C13.1221 19.5293 13.2832 19.4971 13.3901 19.3901L20.625 12.1553L21.5947 13.125L12 22.7197L2.40527 13.125L3.375 12.1553L10.6099 19.3901C10.7168 19.4971 10.8794 19.5293 11.0186 19.4707C11.1592 19.4136 11.25 19.2759 11.25 19.125V1.5ZM14.625 1.5C14.417 1.5 14.25 1.66846 14.25 1.875C14.25 2.08154 14.417 2.25 14.625 2.25H15.375C15.583 2.25 15.75 2.08154 15.75 1.875C15.75 1.66846 15.583 1.5 15.375 1.5H14.625ZM14.625 3.375C14.417 3.375 14.25 3.54346 14.25 3.75C14.25 3.95654 14.417 4.125 14.625 4.125H15.375C15.583 4.125 15.75 3.95654 15.75 3.75C15.75 3.54346 15.583 3.375 15.375 3.375H14.625ZM14.625 5.25C14.417 5.25 14.25 5.41846 14.25 5.625C14.25 5.83154 14.417 6 14.625 6H15.375C15.583 6 15.75 5.83154 15.75 5.625C15.75 5.41846 15.583 5.25 15.375 5.25H14.625ZM14.625 7.125C14.417 7.125 14.25 7.29346 14.25 7.5C14.25 7.70654 14.417 7.875 14.625 7.875H15.375C15.583 7.875 15.75 7.70654 15.75 7.5C15.75 7.29346 15.583 7.125 15.375 7.125H14.625ZM14.625 9C14.417 9 14.25 9.16846 14.25 9.375C14.25 9.58154 14.417 9.75 14.625 9.75H15.375C15.583 9.75 15.75 9.58154 15.75 9.375C15.75 9.16846 15.583 9 15.375 9H14.625ZM14.625 10.875C14.417 10.875 14.25 11.0435 14.25 11.25C14.25 11.4565 14.417 11.625 14.625 11.625H15.375C15.583 11.625 15.75 11.4565 15.75 11.25C15.75 11.0435 15.583 10.875 15.375 10.875H14.625ZM14.625 12.75C14.417 12.75 14.25 12.9185 14.25 13.125C14.25 13.3315 14.417 13.5 14.625 13.5H15.375C15.583 13.5 15.75 13.3315 15.75 13.125C15.75 12.9185 15.583 12.75 15.375 12.75H14.625ZM14.625 14.625C14.417 14.625 14.25 14.7935 14.25 15C14.25 15.2065 14.417 15.375 14.625 15.375H15.375C15.583 15.375 15.75 15.2065 15.75 15C15.75 14.7935 15.583 14.625 15.375 14.625H14.625Z" fill="#2A2A2A"/>
</svg>
