<svg width="48" height="48" viewBox="0 0 48 48" fill="none" xmlns="http://www.w3.org/2000/svg">
<path d="M34.5 10.5C34.3096 10.5 34.1162 10.5732 33.9697 10.7197L30.9697 13.7197C30.6768 14.0127 30.6768 14.4873 30.9697 14.7803L37.1895 21H0.75C0.336914 21 0 21.3369 0 21.75V26.25C0 26.6631 0.336914 27 0.75 27H37.1895L30.9697 33.2197C30.6768 33.5127 30.6768 33.9873 30.9697 34.2803L33.9697 37.2803C34.1162 37.4268 34.3066 37.5 34.5 37.5C34.6934 37.5 34.8838 37.4268 35.0303 37.2803L47.7803 24.5303C48.0732 24.2373 48.0732 23.7627 47.7803 23.4697L35.0303 10.7197C34.8838 10.5732 34.6904 10.5 34.5 10.5ZM34.5 12.3105L46.1895 24L34.5 35.6895L32.5605 33.75L39.5303 26.7803C39.7441 26.5664 39.8086 26.2441 39.6914 25.9629C39.5771 25.6846 39.3018 25.5 39 25.5H1.5V22.5H39C39.3018 22.5 39.5771 22.3154 39.6914 22.0371C39.8086 21.7559 39.7441 21.4336 39.5303 21.2197L32.5605 14.25L34.5 12.3105ZM0.75 28.5C0.336914 28.5 0 28.8369 0 29.25V30.75C0 31.1631 0.336914 31.5 0.75 31.5C1.16309 31.5 1.5 31.1631 1.5 30.75V29.25C1.5 28.8369 1.16309 28.5 0.75 28.5ZM4.5 28.5C4.08691 28.5 3.75 28.8369 3.75 29.25V30.75C3.75 31.1631 4.08691 31.5 4.5 31.5C4.91309 31.5 5.25 31.1631 5.25 30.75V29.25C5.25 28.8369 4.91309 28.5 4.5 28.5ZM8.25 28.5C7.83691 28.5 7.5 28.8369 7.5 29.25V30.75C7.5 31.1631 7.83691 31.5 8.25 31.5C8.66309 31.5 9 31.1631 9 30.75V29.25C9 28.8369 8.66309 28.5 8.25 28.5ZM12 28.5C11.5869 28.5 11.25 28.8369 11.25 29.25V30.75C11.25 31.1631 11.5869 31.5 12 31.5C12.4131 31.5 12.75 31.1631 12.75 30.75V29.25C12.75 28.8369 12.4131 28.5 12 28.5ZM15.75 28.5C15.3369 28.5 15 28.8369 15 29.25V30.75C15 31.1631 15.3369 31.5 15.75 31.5C16.1631 31.5 16.5 31.1631 16.5 30.75V29.25C16.5 28.8369 16.1631 28.5 15.75 28.5ZM19.5 28.5C19.0869 28.5 18.75 28.8369 18.75 29.25V30.75C18.75 31.1631 19.0869 31.5 19.5 31.5C19.9131 31.5 20.25 31.1631 20.25 30.75V29.25C20.25 28.8369 19.9131 28.5 19.5 28.5ZM23.25 28.5C22.8369 28.5 22.5 28.8369 22.5 29.25V30.75C22.5 31.1631 22.8369 31.5 23.25 31.5C23.6631 31.5 24 31.1631 24 30.75V29.25C24 28.8369 23.6631 28.5 23.25 28.5ZM27 28.5C26.5869 28.5 26.25 28.8369 26.25 29.25V30.75C26.25 31.1631 26.5869 31.5 27 31.5C27.4131 31.5 27.75 31.1631 27.75 30.75V29.25C27.75 28.8369 27.4131 28.5 27 28.5ZM30.75 28.5C30.3369 28.5 30 28.8369 30 29.25V30.75C30 31.1631 30.3369 31.5 30.75 31.5C31.1631 31.5 31.5 31.1631 31.5 30.75V29.25C31.5 28.8369 31.1631 28.5 30.75 28.5Z" fill="#2A2A2A"/>
</svg>
