<svg width="48" height="48" viewBox="0 0 48 48" fill="none" xmlns="http://www.w3.org/2000/svg">
<g clip-path="url(#clip0)">
<path d="M13.5 10.5C13.3096 10.5 13.1162 10.5732 12.9697 10.7197L0.219727 23.4697C-0.0732422 23.7627 -0.0732422 24.2373 0.219727 24.5303L12.9697 37.2803C13.1162 37.4268 13.3066 37.5 13.5 37.5C13.6934 37.5 13.8838 37.4268 14.0303 37.2803L17.0303 34.2803C17.3232 33.9873 17.3232 33.5127 17.0303 33.2197L10.8105 27H47.25C47.6631 27 48 26.6631 48 26.25V21.75C48 21.3369 47.6631 21 47.25 21H10.8105L17.0303 14.7803C17.3232 14.4873 17.3232 14.0127 17.0303 13.7197L14.0303 10.7197C13.8838 10.5732 13.6904 10.5 13.5 10.5ZM13.5 12.3105L15.4395 14.25L8.46973 21.2197C8.25586 21.4336 8.19141 21.7559 8.30859 22.0371C8.42285 22.3154 8.69824 22.5 9 22.5H46.5V25.5H9C8.69824 25.5 8.42285 25.6846 8.30859 25.9629C8.19141 26.2441 8.25586 26.5664 8.46973 26.7803L15.4395 33.75L13.5 35.6895L1.81055 24L13.5 12.3105ZM17.25 28.5C16.8369 28.5 16.5 28.8369 16.5 29.25V30.75C16.5 31.1631 16.8369 31.5 17.25 31.5C17.6631 31.5 18 31.1631 18 30.75V29.25C18 28.8369 17.6631 28.5 17.25 28.5ZM21 28.5C20.5869 28.5 20.25 28.8369 20.25 29.25V30.75C20.25 31.1631 20.5869 31.5 21 31.5C21.4131 31.5 21.75 31.1631 21.75 30.75V29.25C21.75 28.8369 21.4131 28.5 21 28.5ZM24.75 28.5C24.3369 28.5 24 28.8369 24 29.25V30.75C24 31.1631 24.3369 31.5 24.75 31.5C25.1631 31.5 25.5 31.1631 25.5 30.75V29.25C25.5 28.8369 25.1631 28.5 24.75 28.5ZM28.5 28.5C28.0869 28.5 27.75 28.8369 27.75 29.25V30.75C27.75 31.1631 28.0869 31.5 28.5 31.5C28.9131 31.5 29.25 31.1631 29.25 30.75V29.25C29.25 28.8369 28.9131 28.5 28.5 28.5ZM32.25 28.5C31.8369 28.5 31.5 28.8369 31.5 29.25V30.75C31.5 31.1631 31.8369 31.5 32.25 31.5C32.6631 31.5 33 31.1631 33 30.75V29.25C33 28.8369 32.6631 28.5 32.25 28.5ZM36 28.5C35.5869 28.5 35.25 28.8369 35.25 29.25V30.75C35.25 31.1631 35.5869 31.5 36 31.5C36.4131 31.5 36.75 31.1631 36.75 30.75V29.25C36.75 28.8369 36.4131 28.5 36 28.5ZM39.75 28.5C39.3369 28.5 39 28.8369 39 29.25V30.75C39 31.1631 39.3369 31.5 39.75 31.5C40.1631 31.5 40.5 31.1631 40.5 30.75V29.25C40.5 28.8369 40.1631 28.5 39.75 28.5ZM43.5 28.5C43.0869 28.5 42.75 28.8369 42.75 29.25V30.75C42.75 31.1631 43.0869 31.5 43.5 31.5C43.9131 31.5 44.25 31.1631 44.25 30.75V29.25C44.25 28.8369 43.9131 28.5 43.5 28.5ZM47.25 28.5C46.8369 28.5 46.5 28.8369 46.5 29.25V30.75C46.5 31.1631 46.8369 31.5 47.25 31.5C47.6631 31.5 48 31.1631 48 30.75V29.25C48 28.8369 47.6631 28.5 47.25 28.5Z" fill="#2A2A2A"/>
</g>
<defs>
<clipPath id="clip0">
<rect width="48" height="48" fill="white"/>
</clipPath>
</defs>
</svg>
