<svg width="527" height="439" viewBox="0 0 527 439" fill="none" xmlns="http://www.w3.org/2000/svg">
<g clip-path="url(#clip0)">
<path d="M263.764 438.662C408.781 438.662 526.341 427 526.341 412.615C526.341 398.229 408.781 386.568 263.764 386.568C118.746 386.568 1.18579 398.229 1.18579 412.615C1.18579 427 118.746 438.662 263.764 438.662Z" fill="#FB463E"/>
<path opacity="0.5" d="M263.764 438.662C408.781 438.662 526.341 427 526.341 412.615C526.341 398.229 408.781 386.568 263.764 386.568C118.746 386.568 1.18579 398.229 1.18579 412.615C1.18579 427 118.746 438.662 263.764 438.662Z" fill="white"/>
<path d="M523.93 277.163H33.8203V281.629H523.93V277.163Z" fill="#2A2A2A"/>
<path d="M378.399 222.657C379.362 222.907 380.356 223.013 381.35 222.974C381.35 222.974 380.902 221.656 380.863 221.524C380.402 220.576 378.952 218.995 377.78 219.153C377.584 219.183 377.396 219.254 377.229 219.362C377.063 219.47 376.921 219.612 376.814 219.779C376.707 219.946 376.636 220.134 376.608 220.331C376.579 220.527 376.592 220.727 376.647 220.918C376.795 221.318 377.029 221.681 377.331 221.981C377.634 222.281 377.998 222.512 378.399 222.657Z" fill="#2A2A2A"/>
<path d="M405.79 215.504C404.604 215.372 403.155 216.992 402.773 217.954C402.773 218.046 402.299 219.417 402.325 219.417L401.613 220.26C401.139 220.826 400.625 221.472 400.112 222.21C399.547 223.006 399.028 223.832 398.557 224.687C398.032 225.639 397.591 226.635 397.239 227.664C397.239 227.308 397.239 226.347 397.239 226.268C397.094 225.214 396.212 223.25 395.052 223.04C394.858 223.008 394.658 223.018 394.468 223.068C394.277 223.119 394.099 223.21 393.946 223.334C393.793 223.459 393.668 223.614 393.579 223.791C393.491 223.967 393.44 224.16 393.432 224.357C393.443 224.784 393.55 225.203 393.743 225.584C393.937 225.964 394.213 226.297 394.552 226.557C395.364 227.095 396.252 227.509 397.187 227.783C396.846 228.838 396.582 229.917 396.396 231.011C396.291 231.643 396.185 232.328 396.106 232.934C396.106 232.631 396.106 232.368 396.106 232.328C395.961 231.274 395.079 229.324 393.919 229.113C393.724 229.084 393.525 229.095 393.334 229.146C393.144 229.198 392.966 229.289 392.812 229.412C392.659 229.536 392.533 229.691 392.442 229.866C392.351 230.042 392.298 230.234 392.286 230.431C392.304 230.858 392.415 231.276 392.61 231.655C392.806 232.035 393.082 232.368 393.419 232.631C394.233 233.159 395.121 233.563 396.054 233.83C396.054 234.067 395.988 234.317 395.961 234.568C395.816 235.767 395.685 236.952 395.513 238.112C395.513 238.533 395.382 238.929 395.303 239.337C395.314 239.162 395.314 238.986 395.303 238.81C395.171 237.756 394.288 235.793 393.116 235.582C392.921 235.55 392.722 235.56 392.531 235.611C392.34 235.662 392.162 235.752 392.009 235.877C391.856 236.001 391.731 236.157 391.643 236.333C391.554 236.509 391.504 236.703 391.495 236.9C391.513 237.327 391.623 237.745 391.819 238.125C392.014 238.505 392.291 238.838 392.628 239.1C393.396 239.619 394.241 240.015 395.131 240.273C395.052 240.681 394.96 241.089 394.855 241.485C394.798 241.752 394.728 242.016 394.644 242.275C394.552 242.539 394.473 242.802 394.38 243.066C394.209 243.553 394.025 244.067 393.84 244.541L393.458 245.49C393.524 245.081 393.629 244.291 393.629 244.172C393.624 243.246 393.374 242.337 392.905 241.537C392.917 241.432 392.917 241.326 392.905 241.221C392.881 241.026 392.815 240.838 392.714 240.67C392.612 240.502 392.475 240.357 392.314 240.245C392.152 240.133 391.969 240.056 391.775 240.02C391.582 239.984 391.383 239.989 391.192 240.035C390.046 240.338 389.308 242.354 389.255 243.408C389.255 243.474 389.255 244.159 389.334 244.581C389.269 244.344 389.216 244.093 389.15 243.843C389.031 243.329 388.9 242.828 388.755 242.288L388.518 241.498C388.439 241.234 388.333 240.971 388.241 240.694C388.017 240.075 387.753 239.456 387.477 238.836C388.401 238.646 389.29 238.313 390.112 237.848C390.471 237.613 390.775 237.303 391.002 236.939C391.23 236.575 391.375 236.166 391.429 235.74C391.435 235.543 391.4 235.346 391.325 235.163C391.25 234.98 391.137 234.815 390.995 234.678C390.852 234.541 390.682 234.436 390.495 234.37C390.309 234.303 390.111 234.276 389.914 234.291C388.728 234.423 387.701 236.307 387.49 237.348C387.49 237.414 387.411 238.178 387.371 238.586C387.2 238.217 387.042 237.848 386.857 237.479C386.33 236.425 385.764 235.358 385.197 234.304L384.684 233.329C385.646 233.128 386.574 232.786 387.437 232.315C387.798 232.078 388.103 231.766 388.33 231.4C388.558 231.033 388.703 230.622 388.755 230.194C388.759 229.997 388.722 229.802 388.646 229.62C388.571 229.439 388.458 229.275 388.315 229.14C388.172 229.005 388.003 228.901 387.818 228.835C387.633 228.769 387.436 228.743 387.24 228.758C386.054 228.889 385.026 230.773 384.815 231.814C384.815 231.893 384.697 232.987 384.684 233.263C384.315 232.552 383.946 231.827 383.616 231.116C383.167 230.14 382.78 229.137 382.457 228.112C383.425 227.915 384.358 227.573 385.224 227.098C385.584 226.861 385.889 226.549 386.117 226.182C386.344 225.816 386.489 225.404 386.541 224.976C386.546 224.779 386.508 224.582 386.432 224.4C386.355 224.217 386.241 224.053 386.097 223.918C385.953 223.782 385.782 223.679 385.595 223.614C385.408 223.549 385.21 223.524 385.013 223.54C383.84 223.672 382.813 225.556 382.602 226.597C382.602 226.676 382.47 227.914 382.47 228.072C382.454 228.009 382.432 227.947 382.404 227.888C382.11 226.854 381.912 225.796 381.811 224.726C381.746 224.133 381.706 223.567 381.693 223.013C382.655 222.929 383.598 222.694 384.486 222.315C384.863 222.117 385.194 221.841 385.455 221.505C385.717 221.168 385.903 220.78 386.001 220.365C386.027 220.172 386.013 219.976 385.959 219.788C385.906 219.601 385.815 219.426 385.691 219.276C385.568 219.125 385.414 219.001 385.241 218.912C385.068 218.823 384.878 218.771 384.684 218.758C383.498 218.758 382.273 220.523 381.943 221.525C381.943 221.525 381.811 222.157 381.732 222.579C381.732 222.328 381.732 222.078 381.732 221.841C381.732 220.932 381.732 220.115 381.838 219.39C381.838 218.969 381.917 218.6 381.956 218.244C382.766 217.726 383.49 217.086 384.104 216.347C384.35 215.997 384.517 215.597 384.592 215.176C384.667 214.755 384.649 214.323 384.539 213.909C384.473 213.723 384.369 213.552 384.233 213.409C384.097 213.265 383.931 213.153 383.748 213.078C383.565 213.003 383.368 212.968 383.171 212.975C382.973 212.982 382.779 213.031 382.602 213.119C381.548 213.659 381.284 215.754 381.443 216.834C381.443 216.926 381.864 218.31 381.877 218.31C381.877 218.652 381.785 219.008 381.746 219.403C381.667 220.128 381.587 220.958 381.574 221.854C381.538 222.829 381.56 223.806 381.64 224.779C381.723 225.864 381.903 226.94 382.18 227.993C381.996 227.69 381.443 226.887 381.39 226.834C380.692 226.03 378.887 224.884 377.793 225.358C377.613 225.439 377.452 225.556 377.32 225.703C377.189 225.85 377.09 226.023 377.03 226.211C376.97 226.399 376.951 226.598 376.974 226.793C376.996 226.989 377.06 227.178 377.161 227.348C377.411 227.695 377.734 227.983 378.107 228.193C378.48 228.402 378.895 228.527 379.321 228.56C380.304 228.555 381.281 228.405 382.22 228.112C382.521 229.179 382.9 230.223 383.353 231.235C383.603 231.827 383.88 232.42 384.17 233C383.999 232.75 383.84 232.539 383.814 232.512C383.116 231.709 381.311 230.563 380.217 231.024C380.037 231.105 379.875 231.224 379.744 231.372C379.612 231.52 379.513 231.695 379.454 231.884C379.394 232.073 379.375 232.272 379.398 232.469C379.42 232.666 379.484 232.856 379.585 233.026C379.837 233.372 380.16 233.659 380.533 233.868C380.906 234.077 381.32 234.203 381.746 234.238C382.702 234.239 383.653 234.092 384.565 233.804C384.67 234.028 384.776 234.252 384.894 234.476C385.435 235.556 385.975 236.623 386.475 237.69C386.647 238.059 386.818 238.441 386.976 238.81L386.673 238.375C385.975 237.585 384.157 236.439 383.063 236.9C382.884 236.983 382.724 237.102 382.593 237.251C382.463 237.4 382.366 237.574 382.307 237.763C382.249 237.952 382.231 238.151 382.254 238.347C382.278 238.543 382.343 238.733 382.444 238.902C382.695 239.249 383.018 239.537 383.391 239.746C383.764 239.955 384.178 240.081 384.605 240.114C385.533 240.114 386.457 239.976 387.345 239.706C387.49 240.088 387.648 240.483 387.78 240.865C387.911 241.248 387.964 241.379 388.03 241.643L388.254 242.446C388.373 242.947 388.504 243.474 388.61 243.975C388.715 244.475 388.755 244.647 388.821 244.976L388.267 243.817C387.701 242.921 386.08 241.511 384.921 241.814C384.731 241.866 384.554 241.958 384.403 242.084C384.251 242.21 384.128 242.366 384.042 242.544C383.956 242.721 383.909 242.914 383.904 243.111C383.899 243.308 383.935 243.503 384.012 243.685C384.201 244.067 384.474 244.402 384.808 244.666C385.143 244.931 385.533 245.117 385.948 245.213C386.918 245.362 387.904 245.362 388.873 245.213C388.979 245.767 389.084 246.293 389.163 246.807C389.479 248.573 389.677 250.048 389.795 251.089C389.795 251.274 389.795 251.445 389.795 251.59H386.027L387.345 277.083H393.432L394.749 251.59H391.416L391.495 251.445C391.956 250.496 392.589 249.126 393.274 247.492L393.932 245.819C394.887 246.032 395.868 246.108 396.844 246.043C397.26 245.98 397.658 245.831 398.012 245.604C398.366 245.377 398.669 245.077 398.899 244.726C398.987 244.549 399.037 244.356 399.045 244.159C399.053 243.962 399.019 243.766 398.945 243.583C398.872 243.4 398.761 243.235 398.619 243.098C398.477 242.961 398.308 242.856 398.122 242.789C396.989 242.407 395.276 243.685 394.644 244.541C394.644 244.541 394.262 245.187 394.051 245.556L394.328 244.831C394.499 244.344 394.67 243.856 394.842 243.316L395.079 242.539C395.163 242.266 395.233 241.989 395.289 241.709C395.448 241.063 395.566 240.391 395.685 239.746C396.565 240.097 397.493 240.31 398.438 240.378C398.866 240.378 399.289 240.283 399.676 240.101C400.063 239.919 400.405 239.653 400.678 239.324C400.791 239.162 400.869 238.978 400.907 238.784C400.944 238.59 400.941 238.39 400.896 238.197C400.851 238.005 400.766 237.824 400.647 237.666C400.528 237.508 400.377 237.377 400.204 237.282C399.15 236.742 397.253 237.743 396.502 238.494C396.502 238.494 395.975 239.14 395.724 239.469C395.79 239.074 395.843 238.665 395.896 238.257C396.04 237.084 396.159 235.885 396.278 234.7C396.278 234.331 396.343 233.962 396.383 233.593C397.295 233.965 398.26 234.191 399.242 234.265C399.668 234.264 400.09 234.171 400.477 233.991C400.863 233.811 401.206 233.55 401.482 233.224C401.595 233.062 401.673 232.878 401.71 232.684C401.748 232.49 401.744 232.29 401.7 232.097C401.655 231.905 401.57 231.724 401.451 231.566C401.332 231.408 401.181 231.277 401.007 231.182C399.953 230.628 398.056 231.643 397.305 232.381C397.305 232.381 396.554 233.303 396.396 233.527C396.475 232.723 396.567 231.933 396.699 231.142C396.85 230.082 397.079 229.033 397.384 228.007C398.298 228.373 399.262 228.599 400.243 228.679C400.67 228.679 401.091 228.586 401.478 228.406C401.865 228.226 402.208 227.964 402.483 227.638C402.596 227.476 402.674 227.292 402.712 227.098C402.749 226.903 402.746 226.704 402.701 226.511C402.656 226.318 402.571 226.137 402.452 225.98C402.333 225.822 402.182 225.691 402.009 225.596C400.955 225.042 399.071 226.057 398.307 226.795C398.307 226.86 397.516 227.783 397.384 227.967C397.389 227.906 397.389 227.844 397.384 227.783C397.712 226.757 398.126 225.761 398.623 224.805C398.899 224.278 399.189 223.791 399.479 223.316C400.33 223.772 401.245 224.096 402.193 224.278C402.619 224.322 403.049 224.273 403.454 224.134C403.859 223.996 404.229 223.77 404.538 223.474C404.667 223.325 404.762 223.15 404.82 222.961C404.877 222.773 404.894 222.574 404.871 222.379C404.847 222.183 404.783 221.994 404.683 221.824C404.583 221.655 404.448 221.508 404.288 221.393C403.3 220.747 401.31 221.538 400.48 222.196C400.48 222.196 400.006 222.644 399.716 222.947L400.112 222.328C400.612 221.577 401.113 220.918 401.561 220.339L402.285 219.456C403.244 219.472 404.2 219.339 405.118 219.061C405.516 218.904 405.876 218.663 406.172 218.353C406.467 218.044 406.692 217.674 406.831 217.269C406.886 217.085 406.903 216.891 406.879 216.7C406.856 216.509 406.794 216.325 406.696 216.159C406.598 215.993 406.467 215.849 406.311 215.737C406.156 215.624 405.978 215.544 405.79 215.504V215.504ZM392.615 247.255C391.89 248.889 391.297 250.233 390.77 251.208L390.507 251.708H390.428C390.428 251.542 390.402 251.344 390.349 251.116C390.204 250.062 389.98 248.573 389.624 246.794C389.519 246.241 389.387 245.635 389.242 245.029C389.801 244.805 390.346 244.55 390.876 244.265C391.593 244.88 392.391 245.394 393.247 245.793C393.063 246.267 392.852 246.781 392.615 247.255Z" fill="#2A2A2A"/>
<path d="M399.506 223.066C399.506 223.066 399.888 221.669 399.901 221.577C400.046 220.536 399.716 218.415 398.583 217.901C398.404 217.819 398.209 217.776 398.012 217.775C397.815 217.774 397.619 217.814 397.439 217.894C397.258 217.973 397.097 218.091 396.965 218.237C396.833 218.384 396.733 218.557 396.673 218.745C396.576 219.162 396.572 219.595 396.66 220.014C396.749 220.433 396.929 220.827 397.187 221.169C397.865 221.908 398.646 222.547 399.506 223.066Z" fill="#2A2A2A"/>
<path d="M95.6373 225.293C96.5477 225.535 97.4889 225.641 98.4304 225.609C98.4304 225.609 97.9956 224.291 97.9693 224.225C97.5345 223.316 96.1511 221.814 95.0312 221.972C94.8454 222.001 94.6677 222.068 94.5101 222.171C94.3525 222.273 94.2187 222.408 94.1176 222.567C94.0165 222.725 93.9505 222.903 93.924 223.09C93.8975 223.276 93.9112 223.465 93.9641 223.646C94.1052 224.026 94.3282 224.371 94.6173 224.655C94.9065 224.94 95.2547 225.158 95.6373 225.293V225.293Z" fill="#2A2A2A"/>
<path d="M121.619 218.534C120.499 218.415 119.155 219.943 118.746 220.866C118.746 220.958 118.298 222.262 118.325 222.262C118.101 222.499 117.877 222.763 117.64 223.053C117.205 223.593 116.704 224.212 116.217 224.91C115.729 225.609 115.216 226.399 114.741 227.256C114.223 228.166 113.783 229.118 113.424 230.101V230.101C113.424 229.772 113.424 228.85 113.424 228.784C113.292 227.783 112.449 225.925 111.342 225.727C111.151 225.694 110.956 225.704 110.769 225.755C110.582 225.806 110.409 225.898 110.262 226.024C110.115 226.15 109.997 226.306 109.917 226.483C109.838 226.659 109.798 226.851 109.801 227.045C109.816 227.45 109.92 227.848 110.104 228.209C110.288 228.571 110.549 228.888 110.868 229.14C111.651 229.654 112.509 230.045 113.411 230.299C113.091 231.304 112.84 232.33 112.66 233.369C112.554 233.975 112.462 234.594 112.383 235.2C112.383 234.91 112.383 234.66 112.383 234.62C112.251 233.619 111.408 231.761 110.301 231.564C110.116 231.532 109.926 231.54 109.744 231.587C109.562 231.635 109.392 231.721 109.246 231.839C109.1 231.958 108.981 232.106 108.897 232.275C108.813 232.443 108.766 232.627 108.76 232.815C108.776 233.221 108.879 233.618 109.063 233.98C109.248 234.342 109.508 234.659 109.827 234.91C110.584 235.415 111.415 235.797 112.291 236.043C112.291 236.28 112.225 236.518 112.198 236.755C112.067 237.888 111.935 239.021 111.777 240.128L111.579 241.287C111.579 241.023 111.579 240.813 111.579 240.786C111.447 239.785 110.604 237.927 109.498 237.716C109.307 237.684 109.111 237.693 108.924 237.744C108.738 237.796 108.565 237.887 108.417 238.013C108.27 238.139 108.153 238.296 108.073 238.472C107.993 238.649 107.953 238.84 107.956 239.034C107.973 239.437 108.077 239.833 108.261 240.192C108.445 240.551 108.705 240.866 109.023 241.116C109.759 241.605 110.562 241.982 111.408 242.236C111.329 242.618 111.25 243.013 111.144 243.382C111.088 243.636 111.018 243.886 110.934 244.133L110.697 244.884C110.525 245.345 110.354 245.832 110.183 246.28C110.011 246.728 109.932 246.899 109.814 247.189C109.88 246.807 109.985 246.043 109.985 245.977C109.971 245.093 109.731 244.226 109.287 243.461C109.293 243.36 109.293 243.259 109.287 243.158C109.266 242.97 109.206 242.79 109.109 242.628C109.013 242.466 108.883 242.327 108.728 242.219C108.573 242.112 108.397 242.039 108.212 242.005C108.026 241.972 107.836 241.978 107.653 242.025C106.56 242.315 105.861 244.238 105.809 245.239C105.809 245.305 105.809 245.951 105.809 246.359L105.65 245.648C105.532 245.16 105.4 244.686 105.268 244.172C105.189 243.922 105.123 243.672 105.044 243.421C104.965 243.171 104.86 242.907 104.781 242.657C104.557 242.064 104.32 241.471 104.056 240.892C104.997 240.668 105.896 240.295 106.718 239.785C107.053 239.558 107.336 239.262 107.548 238.917C107.759 238.571 107.894 238.184 107.943 237.782C107.944 237.598 107.906 237.415 107.832 237.246C107.757 237.077 107.648 236.925 107.512 236.801C107.375 236.677 107.214 236.583 107.038 236.525C106.863 236.467 106.677 236.446 106.494 236.465C105.374 236.583 104.399 238.375 104.201 239.363C104.201 239.429 104.109 240.154 104.083 240.549C103.925 240.207 103.766 239.851 103.595 239.495C103.095 238.481 102.554 237.479 102.014 236.465L101.54 235.543C102.461 235.353 103.349 235.029 104.175 234.581C104.512 234.353 104.796 234.054 105.007 233.707C105.219 233.359 105.353 232.969 105.4 232.565C105.401 232.38 105.363 232.198 105.289 232.028C105.215 231.859 105.106 231.708 104.969 231.584C104.832 231.459 104.671 231.365 104.496 231.307C104.32 231.249 104.135 231.229 103.951 231.248C102.831 231.379 101.856 233.171 101.645 234.159C101.645 234.225 101.54 235.279 101.527 235.543C101.171 234.858 100.828 234.225 100.512 233.487C100.085 232.564 99.7197 231.613 99.4187 230.642C100.341 230.45 101.229 230.121 102.054 229.667C102.394 229.444 102.68 229.149 102.892 228.803C103.104 228.457 103.236 228.068 103.279 227.664C103.28 227.479 103.242 227.296 103.168 227.127C103.093 226.958 102.984 226.807 102.848 226.682C102.711 226.558 102.55 226.464 102.374 226.406C102.199 226.348 102.013 226.328 101.83 226.346C100.71 226.465 99.7349 228.257 99.5373 229.245C99.5373 229.324 99.4187 230.444 99.4187 230.655C99.4133 230.598 99.4133 230.54 99.4187 230.483C99.1396 229.501 98.95 228.496 98.8522 227.48C98.8522 226.913 98.76 226.373 98.7336 225.846C99.6409 225.765 100.53 225.543 101.369 225.187C101.73 224.999 102.046 224.734 102.294 224.411C102.542 224.087 102.716 223.714 102.805 223.316C102.833 223.127 102.821 222.935 102.767 222.751C102.714 222.568 102.622 222.398 102.496 222.254C102.371 222.11 102.216 221.995 102.042 221.917C101.867 221.838 101.678 221.799 101.487 221.801C100.354 221.801 99.1815 223.474 98.8522 224.436C98.8522 224.436 98.7204 225.029 98.6414 225.437C98.6414 225.2 98.6414 224.95 98.6414 224.726C98.6414 223.87 98.6414 223.092 98.7468 222.394C98.7468 221.999 98.8258 221.643 98.8653 221.314C99.6318 220.822 100.316 220.213 100.894 219.509C101.132 219.177 101.293 218.798 101.366 218.397C101.439 217.996 101.422 217.583 101.316 217.19C101.255 217.013 101.157 216.851 101.028 216.714C100.9 216.578 100.743 216.471 100.57 216.4C100.397 216.329 100.21 216.296 100.023 216.302C99.836 216.309 99.6524 216.356 99.4846 216.439C98.4701 216.953 98.1671 218.982 98.3779 219.97C98.3779 220.062 98.7731 221.379 98.7863 221.366C98.7863 221.682 98.6941 222.025 98.6545 222.407C98.6545 223.092 98.5096 223.883 98.4964 224.739C98.4385 225.66 98.4385 226.585 98.4964 227.506C98.5691 228.539 98.7412 229.562 99.0103 230.562V230.562L98.2593 229.469C97.6005 228.705 95.8746 227.611 94.8338 228.059C94.6613 228.135 94.507 228.247 94.3813 228.387C94.2557 228.527 94.1616 228.693 94.1054 228.873C94.0492 229.053 94.0322 229.242 94.0556 229.429C94.079 229.616 94.1422 229.796 94.2409 229.956C94.4774 230.285 94.7827 230.557 95.1354 230.755C95.4881 230.953 95.8798 231.072 96.283 231.103C97.2171 231.105 98.1459 230.962 99.0366 230.681C99.3383 231.69 99.699 232.679 100.117 233.645C100.354 234.212 100.618 234.778 100.894 235.332L100.565 234.858C99.9062 234.093 98.1803 233.013 97.1394 233.448C96.9669 233.523 96.8126 233.635 96.6869 233.776C96.5613 233.916 96.4672 234.082 96.411 234.261C96.3548 234.441 96.3378 234.631 96.3612 234.818C96.3846 235.005 96.4478 235.185 96.5465 235.345C96.7824 235.675 97.0872 235.95 97.4398 236.15C97.7925 236.35 98.1845 236.471 98.5887 236.504C99.4822 236.497 100.37 236.359 101.224 236.096C101.342 236.307 101.434 236.518 101.54 236.728C102.054 237.756 102.581 238.77 103.055 239.785L103.529 240.852L103.239 240.444C102.581 239.68 100.855 238.586 99.8139 239.034C99.6414 239.11 99.4871 239.221 99.3615 239.362C99.2358 239.502 99.1417 239.668 99.0855 239.848C99.0293 240.027 99.0124 240.217 99.0357 240.404C99.0591 240.591 99.1223 240.771 99.2211 240.931C99.4569 241.261 99.7617 241.536 100.114 241.736C100.467 241.936 100.859 242.057 101.263 242.091C102.157 242.097 103.046 241.964 103.898 241.695C104.043 242.064 104.188 242.433 104.32 242.802C104.452 243.171 104.491 243.29 104.557 243.553C104.623 243.817 104.702 244.054 104.768 244.304C104.886 244.778 105.005 245.279 105.11 245.753L105.308 246.715C105.15 246.359 104.807 245.674 104.781 245.608C104.241 244.765 102.699 243.421 101.606 243.698C101.422 243.745 101.251 243.832 101.104 243.952C100.957 244.071 100.837 244.221 100.753 244.391C100.67 244.561 100.623 244.748 100.618 244.937C100.613 245.127 100.649 245.315 100.723 245.49C100.909 245.852 101.172 246.169 101.492 246.419C101.813 246.669 102.185 246.847 102.581 246.939C103.497 247.081 104.431 247.081 105.347 246.939C105.453 247.453 105.558 247.967 105.637 248.454C105.94 250.127 106.112 251.537 106.23 252.525C106.23 252.71 106.23 252.855 106.23 253.013H102.831L104.069 277.242H109.866L111.197 252.96H108.035V252.815C108.47 251.906 109.076 250.602 109.722 249.007C109.932 248.507 110.143 247.967 110.354 247.4C111.259 247.62 112.192 247.696 113.121 247.624C113.522 247.56 113.905 247.409 114.242 247.182C114.579 246.954 114.862 246.655 115.071 246.307C115.156 246.139 115.205 245.955 115.214 245.767C115.223 245.579 115.191 245.391 115.121 245.216C115.051 245.042 114.945 244.884 114.809 244.754C114.673 244.624 114.51 244.524 114.333 244.462C113.266 244.106 111.632 245.318 111.026 246.135L110.473 247.097C110.552 246.873 110.644 246.649 110.723 246.412C110.894 245.951 111.052 245.477 111.223 244.976C111.303 244.726 111.368 244.475 111.447 244.225C111.527 243.975 111.579 243.711 111.645 243.448C111.79 242.828 111.909 242.209 112.014 241.577C112.857 241.906 113.746 242.106 114.649 242.17C115.055 242.167 115.455 242.078 115.824 241.908C116.192 241.737 116.519 241.489 116.783 241.182C116.896 241.029 116.975 240.853 117.014 240.667C117.052 240.481 117.05 240.289 117.008 240.104C116.965 239.918 116.883 239.744 116.767 239.594C116.651 239.443 116.504 239.32 116.335 239.232C115.334 238.718 113.529 239.68 112.818 240.391C112.818 240.391 112.317 240.997 112.067 241.313C112.133 240.931 112.185 240.549 112.238 240.167C112.383 239.047 112.488 237.901 112.594 236.768C112.594 236.425 112.66 236.083 112.699 235.727C113.567 236.074 114.482 236.287 115.413 236.359C115.819 236.357 116.219 236.268 116.588 236.097C116.956 235.927 117.283 235.679 117.547 235.371C117.658 235.219 117.735 235.044 117.772 234.86C117.81 234.675 117.807 234.485 117.765 234.301C117.722 234.117 117.641 233.945 117.526 233.796C117.411 233.646 117.266 233.523 117.1 233.435C116.085 232.908 114.293 233.869 113.569 234.581C113.569 234.581 112.87 235.45 112.712 235.661C112.791 234.897 112.87 234.146 112.989 233.395C113.143 232.389 113.363 231.395 113.648 230.418C114.519 230.766 115.439 230.979 116.375 231.05C116.779 231.048 117.177 230.958 117.543 230.788C117.909 230.617 118.234 230.369 118.496 230.062C118.609 229.909 118.688 229.733 118.726 229.547C118.765 229.361 118.763 229.169 118.721 228.984C118.678 228.799 118.596 228.625 118.48 228.474C118.364 228.324 118.216 228.2 118.048 228.112C117.047 227.598 115.242 228.56 114.53 229.271C114.53 229.271 113.766 230.207 113.661 230.378V230.194C113.973 229.221 114.37 228.278 114.847 227.374C115.097 226.873 115.374 226.399 115.65 225.951C116.472 226.398 117.363 226.705 118.285 226.86C118.689 226.908 119.098 226.865 119.483 226.736C119.868 226.606 120.22 226.392 120.512 226.109C120.639 225.97 120.734 225.804 120.791 225.624C120.849 225.445 120.867 225.254 120.844 225.067C120.822 224.88 120.759 224.699 120.661 224.538C120.563 224.377 120.431 224.239 120.275 224.133C119.339 223.501 117.442 224.252 116.652 224.884L115.927 225.609C116.059 225.411 116.177 225.2 116.309 225.016C116.783 224.304 117.258 223.698 117.627 223.132C117.877 222.816 118.101 222.539 118.325 222.289C119.217 222.292 120.105 222.163 120.96 221.906C121.338 221.756 121.679 221.527 121.961 221.234C122.243 220.941 122.458 220.591 122.594 220.207C122.647 220.033 122.664 219.85 122.643 219.669C122.622 219.488 122.564 219.314 122.472 219.157C122.381 219 122.258 218.863 122.111 218.756C121.964 218.649 121.796 218.573 121.619 218.534V218.534ZM109.181 248.718C108.496 250.285 107.864 251.563 107.429 252.446C107.337 252.631 107.245 252.789 107.179 252.934H107.1C107.1 252.749 107.1 252.565 107.021 252.354C106.889 251.353 106.678 249.943 106.336 248.256C106.23 247.716 106.112 247.15 105.98 246.57C106.507 246.359 107.022 246.117 107.521 245.845C108.205 246.426 108.963 246.913 109.774 247.295C109.581 247.795 109.383 248.27 109.181 248.718V248.718Z" fill="#2A2A2A"/>
<path d="M115.703 225.714C115.703 225.714 116.059 224.397 116.072 224.318C116.203 223.316 115.887 221.301 114.873 220.813C114.702 220.733 114.516 220.691 114.328 220.689C114.14 220.686 113.953 220.725 113.781 220.801C113.608 220.877 113.454 220.989 113.329 221.13C113.204 221.271 113.11 221.437 113.055 221.617C112.961 222.012 112.955 222.424 113.037 222.822C113.119 223.22 113.287 223.596 113.529 223.922C114.16 224.625 114.893 225.229 115.703 225.714V225.714Z" fill="#2A2A2A"/>
<path d="M409.742 279.798V32.3184" stroke="#2A2A2A" stroke-linecap="round" stroke-linejoin="round"/>
<path d="M188.403 279.798V33.8599" stroke="#2A2A2A" stroke-linecap="round" stroke-linejoin="round"/>
<path d="M47.1006 158.311H506.236" stroke="#2A2A2A" stroke-linecap="round" stroke-linejoin="round"/>
<path d="M116.414 48.2073H125.439C126.599 48.2073 127.712 48.6682 128.532 49.4885C129.352 50.3088 129.813 51.4214 129.813 52.5815V62.5813H111.988V52.5815C111.988 52.0026 112.102 51.4295 112.325 50.8953C112.549 50.3611 112.876 49.8766 113.287 49.4697C113.699 49.0629 114.187 48.7418 114.724 48.5251C115.261 48.3084 115.836 48.2004 116.414 48.2073V48.2073Z" fill="#2A2A2A"/>
<path d="M128.97 75.8354C128.97 77.4718 128.485 79.0715 127.576 80.4322C126.667 81.7928 125.374 82.8533 123.863 83.4795C122.351 84.1058 120.687 84.2696 119.082 83.9503C117.477 83.6311 116.003 82.8431 114.846 81.6859C113.689 80.5288 112.901 79.0546 112.581 77.4496C112.262 75.8446 112.426 74.181 113.052 72.6691C113.678 71.1573 114.739 69.8651 116.1 68.9559C117.46 68.0468 119.06 67.5615 120.696 67.5615C122.891 67.5615 124.995 68.4332 126.547 69.9849C128.098 71.5366 128.97 73.641 128.97 75.8354V75.8354Z" fill="white"/>
<path d="M156.111 76.2174H85.7429L112.132 61.8435H129.655L156.111 76.2174Z" fill="#2A2A2A"/>
<path d="M122.409 21.4226H119.431V50.1836H122.409V21.4226Z" fill="#2A2A2A"/>
<path d="M454.3 48.2075H463.312C464.472 48.2075 465.585 48.6684 466.405 49.4887C467.225 50.309 467.686 51.4215 467.686 52.5816V62.5815H449.926V52.5816C449.926 51.4215 450.387 50.309 451.207 49.4887C452.028 48.6684 453.14 48.2075 454.3 48.2075V48.2075Z" fill="#2A2A2A"/>
<path d="M458.582 84.1093C463.152 84.1093 466.856 80.405 466.856 75.8354C466.856 71.2659 463.152 67.5615 458.582 67.5615C454.013 67.5615 450.308 71.2659 450.308 75.8354C450.308 80.405 454.013 84.1093 458.582 84.1093Z" fill="white"/>
<path d="M493.997 76.2174H423.629L450.018 61.8435H467.541L493.997 76.2174Z" fill="#2A2A2A"/>
<path d="M460.295 21.4226H457.317V50.1836H460.295V21.4226Z" fill="#2A2A2A"/>
<path d="M253.013 112.857L247.295 116.375" stroke="#2A2A2A" stroke-width="0.5" stroke-linecap="round" stroke-linejoin="round"/>
<path d="M349.533 53.3721L260.707 108.114" stroke="#2A2A2A" stroke-width="0.5" stroke-linecap="round" stroke-linejoin="round"/>
<path d="M361.259 57.0742L290.087 100.921" stroke="#2A2A2A" stroke-width="0.5" stroke-linecap="round" stroke-linejoin="round"/>
<path d="M392.338 37.9177L370.837 51.1586" stroke="#2A2A2A" stroke-width="0.5" stroke-linecap="round" stroke-linejoin="round"/>
<path d="M281.076 267.9C281.076 267.9 278.783 283.091 280.391 291.141C281.998 299.191 287.979 338.571 289.613 354.658C291.247 370.745 299.046 395.145 299.507 396.304C299.969 397.463 298.822 400.665 298.822 402.048C298.822 403.432 299.283 406.66 299.283 406.66C299.283 406.66 292.604 411.021 289.152 413.102C285.7 415.184 287.321 416.093 290.535 416.541C293.75 416.989 339.283 416.541 339.283 416.541C339.283 416.541 340.429 416.317 339.046 414.248C337.662 412.18 328.229 405.737 328.229 405.737C328.047 404.207 327.972 402.667 328.005 401.126C328.005 397.911 325.238 392.154 325.238 392.154C325.238 392.154 330.311 355.343 329.191 345.673C328.071 336.002 327.583 326.121 329.428 317.373C331.272 308.624 328.506 269.745 328.967 267.9C329.203 266.566 329.042 265.192 328.506 263.948C328.506 263.948 314.013 269.692 301.813 270.615C294.785 271.258 287.701 270.331 281.076 267.9V267.9Z" fill="#2A2A2A" stroke="#2A2A2A" stroke-miterlimit="10" stroke-linecap="round"/>
<path d="M339.059 414.248C337.675 412.18 328.242 405.737 328.242 405.737C328.242 405.737 328.242 405.566 328.242 405.276C322.58 407.144 317.291 409.994 312.616 413.695C312.616 413.695 313.367 412.694 309.125 409.202C306.303 407.075 302.764 406.13 299.257 406.567C299.257 406.567 292.577 410.928 289.125 413.01C285.674 415.092 287.294 416.001 290.509 416.449C293.723 416.897 339.256 416.449 339.256 416.449C339.256 416.449 340.442 416.33 339.059 414.248Z" fill="white" stroke="#2A2A2A" stroke-linecap="round" stroke-linejoin="round"/>
<path d="M289.442 414.525C289.442 414.525 297.913 415.144 301.418 414.117" stroke="#2A2A2A" stroke-width="0.75" stroke-linecap="round" stroke-linejoin="round"/>
<path d="M278.585 204.384C278.585 204.384 271.998 239.956 270.298 245.305C268.599 250.654 269.258 263.092 274.251 261.642C279.244 260.193 280.838 252.749 281.273 250.681C281.708 248.612 282.103 212.473 282.103 206.228C282.103 199.983 278.585 204.384 278.585 204.384Z" fill="#FB463E" stroke="#2A2A2A" stroke-linecap="round" stroke-linejoin="round"/>
<path d="M302.577 190.669C302.577 190.669 285.581 195.662 282.815 196.242C280.048 196.821 278.678 200.958 278.533 204.384C278.388 207.809 278.968 242.789 278.823 253.224C278.678 263.658 277.255 267.215 281.958 271.063C286.662 274.91 299.955 275.634 312.09 274.778C324.224 273.921 329.665 270.206 329.665 264.791C329.665 259.376 328.809 233.659 328.809 233.659C328.809 233.659 330.126 218.666 333.09 212.236C336.055 205.807 337.794 203.804 335.515 201.525C333.235 199.246 319.085 191.103 313.526 189.522C309.849 188.689 306.001 189.092 302.577 190.669V190.669Z" fill="#FB463E" stroke="#2A2A2A" stroke-linecap="round" stroke-linejoin="round"/>
<path d="M299.297 200.668L300.864 210.668L312.287 203.949L307.294 195.807C307.294 195.807 300.298 197.954 299.297 200.668Z" fill="#2A2A2A" stroke="#2A2A2A" stroke-linecap="round" stroke-linejoin="round"/>
<path d="M303.473 185.491C301.217 187.454 299.419 189.887 298.203 192.619C296.609 196.663 293.289 203.053 294.646 203.409C296.003 203.765 300.047 200.352 300.904 200.352C301.76 200.352 303.473 204.516 303.974 204.647C305.735 204.164 307.457 203.547 309.125 202.803C309.125 202.803 309.863 208.073 311.457 208.205C313.051 208.336 318.453 200.102 319.441 193.962C320.429 187.823 317.228 186.848 316.608 186.716C315.989 186.584 308.756 183.409 303.473 185.491Z" fill="#FB463E" stroke="#2A2A2A" stroke-linecap="round" stroke-linejoin="round"/>
<path d="M302.617 165.478C302.617 165.478 302.379 159.839 302.379 156.4C302.379 152.962 302.867 151.13 304.948 150.379C307.03 149.628 307.649 152.843 307.583 154.556C307.518 156.269 302.617 165.478 302.617 165.478Z" fill="#2A2A2A" stroke="#2A2A2A" stroke-linecap="round" stroke-linejoin="round"/>
<path d="M302.617 164.134C302.617 164.134 302.498 159.958 301.023 162.171C299.547 164.384 300.048 169.536 301.023 169.048C301.998 168.561 302.617 164.134 302.617 164.134Z" fill="white" stroke="#2A2A2A" stroke-linecap="round" stroke-linejoin="round"/>
<path d="M302.867 185.254C302.867 185.254 302.498 195.188 302.248 199.114C301.997 203.04 303.354 205.253 305.686 204.384C308.018 203.514 313.671 196.031 315.383 193.093C316.525 191.058 317.47 188.918 318.203 186.703C318.203 186.703 309.744 189.298 302.867 185.254Z" fill="white" stroke="#2A2A2A" stroke-linecap="round" stroke-linejoin="round"/>
<path d="M305.66 153.331C305.66 153.331 301.246 167.942 300.021 173.212C298.796 178.482 299.402 182.922 301.615 186.387C302.653 187.983 304.1 189.27 305.806 190.114C307.513 190.958 309.414 191.327 311.312 191.183C315.265 191.051 320.153 190.076 323.091 183.936C324.653 180.543 326.008 177.059 327.149 173.502C327.755 172.276 329.968 165.887 331.193 161.842C332.419 157.797 329.994 152.922 325.304 150.182C323.881 149.299 314.29 143.239 305.66 153.331Z" fill="white" stroke="#2A2A2A" stroke-linecap="round" stroke-linejoin="round"/>
<path d="M328.058 172.118C328.058 172.118 331.127 169.655 332.01 171.499C332.893 173.344 331.272 176.651 329.191 177.757C328.689 178.089 328.114 178.295 327.516 178.36C326.918 178.424 326.313 178.344 325.752 178.126C325.752 178.126 326.74 173.462 328.058 172.118Z" fill="white" stroke="#2A2A2A" stroke-linecap="round" stroke-linejoin="round"/>
<path d="M332.076 148.179L330.758 146.704C330.758 146.704 330.64 145.716 326.7 144.253C322.761 142.791 318.229 143.015 316.635 141.052C315.041 139.089 313.196 138.601 308.532 139.339C303.868 140.077 301.945 144.859 301.945 148.785C301.945 152.711 310.416 158.245 316.305 159.101C322.195 159.958 327.978 158.113 326.74 159.22C325.502 160.327 321.957 164.253 323.183 165.61C324.408 166.967 325.146 167.81 325.146 169.417C325.146 170.511 324.922 173.041 324.975 174.569C324.5 175.531 323.235 178.1 322.946 178.521C322.656 178.943 319.138 176.071 317.043 174.964C316.074 174.366 314.986 173.988 313.855 173.857C313.855 173.857 313.736 175.702 312.88 175.939C312.024 176.176 309.072 176.189 308.203 175.333C307.932 174.956 307.739 174.529 307.635 174.076C307.531 173.624 307.518 173.155 307.597 172.698C304.594 172.806 301.742 174.043 299.613 176.163C299.118 179.689 299.858 183.278 301.707 186.321C302.745 187.917 304.192 189.204 305.898 190.048C307.605 190.892 309.506 191.261 311.404 191.117C315.357 190.985 320.245 190.01 323.183 183.87C324.616 180.87 325.806 177.76 326.74 174.569C327.126 173.998 327.432 173.378 327.649 172.724C328.787 170.162 330.272 167.768 332.063 165.61C334.454 162.33 335.745 158.378 335.752 154.319C335.783 153.053 335.454 151.803 334.803 150.717C334.152 149.63 333.207 148.75 332.076 148.179Z" fill="#2A2A2A" stroke="#2A2A2A" stroke-linecap="round" stroke-linejoin="round"/>
<path d="M320.811 148.878C320.811 148.878 312.906 145.913 311.589 151.513C310.271 157.112 323.446 158.759 334.316 156.783" stroke="white" stroke-width="0.75" stroke-linecap="round" stroke-linejoin="round"/>
<path d="M324.764 163.37C324.764 163.37 327.069 164.029 332.339 162.382" stroke="white" stroke-width="0.75" stroke-linecap="round" stroke-linejoin="round"/>
<path d="M310.35 164.134L309.863 166.954C309.863 166.954 306.674 174.081 307.531 174.938C308.387 175.794 312.933 176.782 313.301 175.307C313.498 174.623 313.622 173.921 313.67 173.212L312.195 172.843" stroke="#2A2A2A" stroke-linecap="round" stroke-linejoin="round"/>
<path d="M315.515 165.241C315.515 165.241 320.047 164.134 321.154 167.942" stroke="#2A2A2A" stroke-linecap="round" stroke-linejoin="round"/>
<path d="M309.375 162.909C308.843 162.399 308.16 162.075 307.428 161.987C306.696 161.899 305.955 162.052 305.317 162.421" stroke="#2A2A2A" stroke-linecap="round" stroke-linejoin="round"/>
<path d="M317.346 169.523C317.241 170.261 316.806 170.84 316.371 170.748C315.937 170.656 315.66 170.037 315.765 169.299C315.871 168.561 316.292 167.981 316.74 168.074C317.188 168.166 317.439 168.785 317.346 169.523Z" fill="#2A2A2A"/>
<path d="M307.096 166.453C306.991 167.191 306.556 167.771 306.121 167.678C305.686 167.586 305.41 166.98 305.515 166.229C305.621 165.478 306.042 164.912 306.49 165.004C306.938 165.096 307.188 165.715 307.096 166.453Z" fill="#2A2A2A"/>
<path d="M316.121 178.614C310.983 184.714 306.898 179.681 306.543 178.376L316.121 178.614Z" fill="white"/>
<path d="M300.864 210.668C300.864 210.668 294.87 234.515 293.724 245.938C293.045 252.389 292.71 258.871 292.722 265.358L295.726 270.628L300.153 265.358C300.153 265.358 300.008 239.943 300.008 231.801C300.008 223.659 300.864 210.668 300.864 210.668Z" fill="#2A2A2A" stroke="#2A2A2A" stroke-linecap="round" stroke-linejoin="round"/>
<path d="M329.164 215.214C329.164 215.214 325.488 223.501 326.872 227.638C328.255 231.775 339.981 249.034 341.127 249.732C342.273 250.431 351.259 252.486 352.405 247.203C353.551 241.92 343.894 210.616 340.903 206.018C337.912 201.42 335.633 201.868 334.461 202.79" fill="#FB463E"/>
<path d="M329.164 215.214C329.164 215.214 325.488 223.501 326.872 227.638C328.255 231.775 339.981 249.034 341.127 249.732C342.273 250.431 351.259 252.486 352.405 247.203C353.551 241.92 343.894 210.616 340.903 206.018C337.912 201.42 335.633 201.868 334.461 202.79" stroke="#2A2A2A" stroke-linecap="round" stroke-linejoin="round"/>
<path d="M297.413 232.473L298.796 269.284L326.872 267.914L326.174 231.788L297.413 232.473Z" fill="white" stroke="#2A2A2A" stroke-linecap="round" stroke-linejoin="round"/>
<path d="M346.885 240.76C346.885 240.76 339.757 241.445 335.607 243.751C331.457 246.056 315.357 249.495 315.357 249.495L316.279 258.467C323.536 259.394 330.88 259.394 338.137 258.467C348.492 256.86 354.474 257.321 354.935 254.33C355.396 251.34 351.483 240.062 351.483 240.062" fill="#FB463E"/>
<path d="M346.885 240.76C346.885 240.76 339.757 241.445 335.607 243.751C331.457 246.056 315.357 249.495 315.357 249.495L316.279 258.467C323.536 259.394 330.88 259.394 338.137 258.467C348.492 256.86 354.474 257.321 354.935 254.33C355.396 251.34 351.483 240.062 351.483 240.062" stroke="#2A2A2A" stroke-linecap="round" stroke-linejoin="round"/>
<path d="M321.352 248.573L321.799 258.928" stroke="#2A2A2A" stroke-linecap="round" stroke-linejoin="round"/>
<path d="M316.055 250.417L308.295 244.212C308.295 244.212 303.025 241.445 301.853 241.445C299.458 241.699 297.079 242.082 294.725 242.591C293.803 242.828 294.264 243.975 295.871 244.673C296.893 245.092 297.982 245.324 299.086 245.358C299.086 245.358 291.734 246.965 291.734 248.81C291.734 250.654 294.949 251.563 294.949 251.563C294.949 251.563 294.027 255.938 296.095 257.558C298.164 259.179 300.245 259.851 303.921 258.876C307.597 257.901 316.345 258.414 316.345 258.414L316.055 250.417Z" fill="white" stroke="#2A2A2A" stroke-linecap="round" stroke-linejoin="round"/>
<path d="M277.321 246.544C277.321 246.544 271.945 240.141 270.298 235.174C268.651 230.207 264.923 220.681 264.923 220.681L258.928 220.47C258.928 220.47 259.547 239.074 262.881 249.627C266.214 260.18 270.522 265.542 272.801 264.514C275.081 263.487 278.388 258.52 278.388 258.52" fill="#FB463E"/>
<path d="M277.321 246.544C277.321 246.544 271.945 240.141 270.298 235.174C268.651 230.207 264.923 220.681 264.923 220.681L258.928 220.47C258.928 220.47 259.547 239.074 262.881 249.627C266.214 260.18 270.522 265.542 272.801 264.514C275.081 263.487 278.388 258.52 278.388 258.52" stroke="#2A2A2A" stroke-linecap="round" stroke-linejoin="round"/>
<path d="M271.129 197.348C269.572 198.488 268.53 200.198 268.23 202.105C267.808 203.752 266.992 204.371 264.278 204.173C263.805 204.102 263.324 204.124 262.86 204.239C262.396 204.355 261.96 204.561 261.577 204.845C261.471 204.413 261.41 203.972 261.392 203.528C261.392 202.052 263.909 198.811 265.055 197.875C266.201 196.94 267.874 195.57 267.69 194.318C267.505 193.067 262.776 195.781 261.419 196.729C260.062 197.678 259.324 201.538 259.324 201.538C258.624 203.913 258.56 206.43 259.139 208.837C258.994 209.153 258.863 209.456 258.718 209.812C256.86 214.357 258.928 220.563 258.928 220.563L264.923 220.774C264.923 220.774 264.304 217.678 265.332 216.426C266.358 214.803 267.536 213.281 268.849 211.881C270.496 210.431 271.326 206.097 271.326 205.056C271.515 203.134 272.004 201.253 272.775 199.483C273.605 197.546 272.986 196.11 271.129 197.348Z" fill="white" stroke="#2A2A2A" stroke-linecap="round" stroke-linejoin="round"/>
<path d="M257.756 205.438C257.756 205.438 258.494 201.578 259.851 200.629C261.208 199.68 265.924 196.966 266.122 198.231C266.32 199.496 264.659 200.866 263.487 201.775C262.314 202.684 259.824 205.965 259.824 207.427C259.924 208.649 260.209 209.848 260.667 210.985C260.667 210.985 259.35 213.396 258.362 213.699C257.374 214.002 256.61 209.311 257.756 205.438Z" fill="white" stroke="#2A2A2A" stroke-linecap="round" stroke-linejoin="round"/>
<path d="M257.966 207.743C257.966 207.743 258.704 203.87 260.061 202.935C261.418 201.999 266.122 199.272 266.333 200.523C266.543 201.775 264.87 203.158 263.698 204.081C262.525 205.003 260.035 208.27 260.035 209.733C260.135 210.954 260.419 212.154 260.878 213.29C260.878 213.29 259.561 215.688 258.573 216.004C257.584 216.32 256.82 211.617 257.966 207.743Z" fill="white" stroke="#2A2A2A" stroke-linecap="round" stroke-linejoin="round"/>
<path d="M258.23 218.099C258.23 218.099 256.557 212.342 256.768 210.049C256.978 207.757 257.808 205.754 258.968 205.649C260.127 205.543 265.028 203.765 265.028 205.122C265.028 206.479 260.536 207.954 260.536 207.954C260.536 207.954 263.355 211.617 263.25 213.488C263.138 214.826 262.895 216.15 262.525 217.44" fill="white"/>
<path d="M258.23 218.099C258.23 218.099 256.557 212.342 256.768 210.049C256.978 207.757 257.808 205.754 258.968 205.649C260.127 205.543 265.028 203.765 265.028 205.122C265.028 206.479 260.536 207.954 260.536 207.954C260.536 207.954 263.355 211.617 263.25 213.488C263.138 214.826 262.895 216.15 262.525 217.44" stroke="#2A2A2A" stroke-linecap="round" stroke-linejoin="round"/>
<path d="M295.344 289.534L300.522 293.328L312.603 412.061" stroke="white" stroke-width="0.75" stroke-linecap="round" stroke-linejoin="round"/>
<path d="M132.488 231.59C132.488 231.59 136.572 241.88 136.757 245.569C136.941 249.258 135.992 248.665 137.534 253.474C139.075 258.283 143.555 269.771 146.085 279.086C148.09 286.686 149.069 294.52 148.996 302.38H120.262C120.262 302.38 122.396 296.556 116.573 280.259C110.749 263.961 108.43 254.278 108.43 249.64C108.43 245.002 105.901 240.325 104.926 235.082C103.951 229.838 107.06 230.418 107.06 230.418L130.551 230.615C130.551 230.615 132.106 230.418 132.488 231.59Z" fill="#2A2A2A" stroke="#2A2A2A" stroke-linecap="round" stroke-linejoin="round"/>
<path d="M104.768 232.75C104.992 230.036 107.06 230.418 107.06 230.418L130.551 230.615C130.551 230.615 132.106 230.418 132.488 231.59C132.488 231.59 136.572 241.88 136.756 245.569C136.815 246.54 136.789 247.514 136.677 248.481L136.177 249.245C136.177 249.245 135.399 256.043 126.085 256.438C116.77 256.834 111.592 252.552 109.59 248.467C107.587 244.383 106.876 237.796 105.321 233.975C105.163 233.527 104.965 233.198 104.768 232.75Z" fill="white" stroke="#2A2A2A" stroke-linecap="round" stroke-linejoin="round"/>
<path d="M108.43 249.64C108.43 244.976 105.901 240.325 104.926 235.081C104.254 231.458 105.532 230.615 106.388 230.444C106.718 230.562 107.917 231.261 109.392 235.859C111.144 241.287 110.169 248.467 111.144 254.304C112.119 260.14 116.968 272.946 120.459 282.459C123.331 290.285 123.977 297.847 122.804 302.445H120.261C120.261 302.445 122.396 296.622 116.572 280.324C110.749 264.027 108.43 254.277 108.43 249.64Z" fill="white" stroke="#2A2A2A" stroke-linecap="round" stroke-linejoin="round"/>
<path d="M252.209 302.09H228.837C228.413 302.052 228.02 301.858 227.733 301.544C227.446 301.231 227.287 300.821 227.287 300.397C227.287 299.972 227.446 299.562 227.733 299.249C228.02 298.935 228.413 298.741 228.837 298.704H252.209C252.83 298.715 253.444 298.579 254.003 298.308C254.561 298.038 255.048 297.639 255.424 297.145C255.8 296.651 256.055 296.076 256.167 295.465C256.279 294.855 256.245 294.226 256.069 293.631L247.769 263.922C247.649 263.49 247.704 263.028 247.924 262.638C248.144 262.247 248.51 261.96 248.942 261.84C249.373 261.719 249.835 261.775 250.225 261.995C250.616 262.215 250.903 262.581 251.023 263.012L259.324 292.722C259.628 293.819 259.675 294.972 259.461 296.09C259.246 297.208 258.776 298.262 258.088 299.169C257.399 300.075 256.51 300.811 255.49 301.317C254.471 301.824 253.348 302.088 252.209 302.09V302.09Z" fill="white" stroke="#2A2A2A" stroke-linecap="round" stroke-linejoin="round"/>
<path d="M249.284 224.857L243.987 224.222L235.779 292.65L241.076 293.285L249.284 224.857Z" fill="white" stroke="#2A2A2A" stroke-linecap="round" stroke-linejoin="round"/>
<path d="M249.311 224.831C254.494 247.908 251.597 272.066 241.103 293.262L249.311 224.831Z" fill="white" stroke="#2A2A2A" stroke-linecap="round" stroke-linejoin="round"/>
<path d="M267.571 301.932H36.3499V402.72H267.571V301.932Z" fill="#2A2A2A"/>
<path opacity="0.72" d="M267.571 301.932H36.3499V402.72H267.571V301.932Z" fill="white"/>
<path d="M267.571 301.932H36.3499V402.72H267.571V301.932Z" stroke="#2A2A2A" stroke-linecap="round" stroke-linejoin="round"/>
<path d="M267.624 304.791H36.3762V308.137H267.624V304.791Z" fill="#2A2A2A"/>
<path d="M269.547 299.955H30.4211V305.225H269.547V299.955Z" fill="white" stroke="#2A2A2A" stroke-linecap="round" stroke-linejoin="round"/>
<path d="M498.858 222.763L472.877 222.987C472.877 222.987 471.164 222.763 470.729 224.054C470.729 224.054 466.224 235.437 466 239.522C465.776 243.606 466.869 242.947 465.143 248.323C463.417 253.698 458.49 266.359 455.697 276.675C451.942 290.535 450.967 305.239 450.73 319.533C450.73 321.826 449.32 341.575 452.89 341.575C455.855 341.575 483.193 345.198 483.522 339.928C484.84 318.927 481.045 298.401 488.344 278.006C491.177 270.101 494.418 261.695 496.829 253.395C499.24 245.095 499.649 236.465 501.216 227.967C502.297 222.117 498.858 222.763 498.858 222.763Z" fill="#2A2A2A" stroke="#2A2A2A" stroke-linecap="round" stroke-linejoin="round"/>
<path d="M501.401 225.293C501.151 222.302 498.858 222.724 498.858 222.724L472.877 222.948C472.877 222.948 471.164 222.724 470.73 224.015C470.73 224.015 466.224 235.398 466 239.482C465.944 240.559 465.975 241.638 466.092 242.71L466.645 243.553C466.645 243.553 467.502 251.076 477.818 251.458C488.134 251.84 493.917 247.163 496.065 242.657C498.213 238.151 499.069 230.8 500.795 226.557C500.966 226.202 501.177 225.767 501.401 225.293Z" fill="white" stroke="#2A2A2A" stroke-linecap="round" stroke-linejoin="round"/>
<path d="M495.38 233.725C493.641 239.996 494.682 241.748 492.943 252.552C491.203 263.355 484.932 275.542 482.482 286.701C480.031 297.861 481.164 337.241 481.441 338.98C481.572 339.905 481.624 340.839 481.599 341.773C482.758 341.338 483.47 340.732 483.522 339.915C484.84 318.914 481.046 298.388 488.345 277.993C491.177 270.088 494.418 261.682 496.829 253.382C499.24 245.082 499.649 236.452 501.216 227.954C501.875 224.397 500.834 223.264 499.899 222.934C497.943 226.326 496.425 229.951 495.38 233.725Z" fill="white" stroke="#2A2A2A" stroke-linecap="round" stroke-linejoin="round"/>
<path d="M424.617 234.357C420.761 236.101 417.032 238.113 413.458 240.378C410.23 242.736 410.823 248.533 410.823 250.035C410.823 251.537 402.233 265.503 403.735 270.443C405.237 275.384 408.886 288.48 409.11 291.523C409.334 294.567 408.675 303.117 408.675 303.117H449.267C449.165 295.514 449.526 287.911 450.348 280.351C451.665 270.694 454.432 267.255 454.432 252.446C454.432 237.638 438.319 234.831 434.248 234.397C431.043 234.151 427.824 234.138 424.617 234.357Z" fill="white" stroke="#2A2A2A" stroke-linecap="round" stroke-linejoin="round"/>
<path d="M403.787 270.443C405.105 274.91 408.267 286.042 409.057 290.351C409.057 288.506 409.057 286.728 408.991 285.252C408.781 279.033 408.991 270.219 415.223 255.832C420.006 244.778 422.759 237.545 423.774 234.752C420.222 236.369 416.792 238.24 413.51 240.352C410.283 242.71 410.875 248.507 410.875 250.009C410.875 251.511 402.285 265.503 403.787 270.443Z" fill="#FB463E" stroke="#2A2A2A" stroke-linecap="round" stroke-linejoin="round"/>
<path d="M371.364 301.365C371.364 301.365 368.557 305.607 366.581 308.308C364.605 311.009 361.416 316.213 363.63 316.437C365.843 316.661 368.307 314.474 370.771 313.236C372.442 312.192 373.734 310.641 374.46 308.809C374.46 308.809 373.722 313.486 375.448 312.498C377.174 311.51 377.174 308.071 377.174 305.844C377.233 303.953 377.395 302.066 377.661 300.192C377.661 300.192 374.42 297.36 371.364 301.365Z" fill="white" stroke="#2A2A2A" stroke-linecap="round" stroke-linejoin="round"/>
<path d="M372.681 306.846C372.681 306.846 360.705 306.846 358.755 307.966C356.805 309.085 350.126 340.534 344.566 353.34C344.566 353.34 340.113 364.473 336.489 369.769C335.172 371.627 329.243 373.946 325.067 375.039C320.89 376.133 319.23 376.989 319.797 378.109C320.363 379.229 329.019 381.166 332.879 381.732C336.74 382.299 339.283 381.166 340.402 381.166C341.522 381.166 342.906 382.562 345.132 381.732C347.359 380.902 345.962 375.039 345.962 371.706C345.962 368.373 350.139 356.397 354.869 351.377C359.598 346.358 368.795 327.162 370.744 321.312C372.694 315.462 373.248 314.079 373.248 314.079" fill="white"/>
<path d="M372.681 306.846C372.681 306.846 360.705 306.846 358.755 307.966C356.805 309.085 350.126 340.534 344.566 353.34C344.566 353.34 340.113 364.473 336.489 369.769C335.172 371.627 329.243 373.946 325.067 375.039C320.89 376.133 319.23 376.989 319.797 378.109C320.363 379.229 329.019 381.166 332.879 381.732C336.74 382.299 339.283 381.166 340.402 381.166C341.522 381.166 342.906 382.562 345.132 381.732C347.359 380.902 345.962 375.039 345.962 371.706C345.962 368.373 350.139 356.397 354.869 351.377C359.598 346.358 368.795 327.162 370.744 321.312C372.694 315.462 373.248 314.079 373.248 314.079" stroke="#2A2A2A" stroke-linecap="round" stroke-linejoin="round"/>
<path d="M369.796 313.565C367.625 314.483 365.784 316.039 364.518 318.028C363.252 320.016 362.621 322.342 362.708 324.698C362.708 333.314 375.369 388.004 375.369 391.034C375.52 393.709 375.05 396.382 373.993 398.844C372.937 401.306 371.325 403.49 369.282 405.224C368.373 406.054 363.09 409.769 363.696 411.482C364.697 414.301 371.772 411.561 373.498 410.823C376.62 409.505 380.085 403.998 383.471 404.235C387.068 404.446 387.516 402.72 387.516 399.163C387.516 395.606 383.564 391.166 383.089 386.093C382.615 381.021 380.968 363.143 382.483 354.592C383.88 346.687 376.884 326.753 376.884 326.753C376.884 326.753 398.386 339.928 417.344 335.33C436.303 330.732 399.664 322.708 394.104 318.651C388.544 314.593 374.354 310.495 369.796 313.565Z" fill="white" stroke="#2A2A2A" stroke-linecap="round" stroke-linejoin="round"/>
<path d="M363.208 312.972C363.208 312.972 372.681 323.275 384.71 328.058L388.886 307.742C388.886 307.742 371.061 304.672 358.808 308.018" fill="white"/>
<path d="M363.208 312.972C363.208 312.972 372.681 323.275 384.71 328.058L388.886 307.742C388.886 307.742 371.061 304.672 358.808 308.018" stroke="#2A2A2A" stroke-linecap="round" stroke-linejoin="round"/>
<path d="M449.267 303.025C449.165 295.421 449.525 287.818 450.348 280.259C451.665 270.601 454.432 267.163 454.432 252.354C454.432 238.56 440.48 235.227 435.262 234.436C434.046 236.423 433.056 238.54 432.311 240.747C431.876 242.894 422.641 261.577 420.454 275.542C418.741 286.701 420.177 298.664 420.823 303.025H408.649L409.215 307.399L386.423 306.398L380.757 329.125C380.757 329.125 393.036 334.395 401.916 338.031C410.796 341.667 428.662 345.066 439.373 341.694C448.2 338.927 454.774 334.158 453.576 324.21C452.677 317.05 451.237 309.968 449.267 303.025V303.025Z" fill="#FB463E" stroke="#2A2A2A" stroke-linecap="round" stroke-linejoin="round"/>
<path d="M423.721 234.779L412.588 250.892L413.879 254.541L410.23 258.625L409.584 270.443" stroke="#2A2A2A" stroke-linecap="round" stroke-linejoin="round"/>
<path d="M434.064 240.8L433.418 253.685L428.912 256.478L430.625 259.917L421.824 276.451" stroke="#2A2A2A" stroke-linecap="round" stroke-linejoin="round"/>
<path d="M415.592 196.308C415.592 196.308 413.049 202.026 413.26 203.725C413.471 205.425 413.062 207.427 411.416 208.073C409.769 208.718 407.977 210.01 408.781 211.419C409.355 212.275 410.14 212.969 411.06 213.435C411.06 213.435 409.98 220.497 410.638 222.355C411.297 224.212 412.601 227.743 414.736 227.48C416.87 227.216 422.219 226.768 422.219 226.768C423.355 230.249 423.532 233.972 422.733 237.545C421.415 243.777 416.725 249.574 421.877 250.852C427.028 252.13 430.045 245.49 432.417 240.76C434.788 236.03 436.026 229.838 437.094 226.268C438.161 222.697 439.729 219.021 439.729 219.021C437.413 218.307 435.306 217.04 433.589 215.33C431.873 213.62 430.597 211.519 429.874 209.206C426.896 200.919 427.068 195.267 422.601 194.094C421.346 193.71 420.004 193.716 418.753 194.111C417.501 194.507 416.399 195.272 415.592 196.308V196.308Z" fill="white" stroke="#2A2A2A" stroke-linecap="round" stroke-linejoin="round"/>
<path d="M419.492 220.866C419.492 220.866 419.94 224.489 424.011 222.473" stroke="#2A2A2A" stroke-linecap="round" stroke-linejoin="round"/>
<path d="M424.367 190.194C424.367 190.194 419.782 189.891 416.725 189.615C413.669 189.338 412.457 193.567 413.168 195.899C413.88 198.231 414.578 198.534 414.578 198.534C414.578 198.534 418.82 196.07 419.242 197.744C419.663 199.417 415.737 202.724 417.806 205.504C419.874 208.284 423.181 210.458 421.481 212.407C419.782 214.357 420.638 216.189 422.14 216.004C423.642 215.82 425.658 212.974 426.475 216.11C427.292 219.245 423.484 221.669 424.301 223.092C425.118 224.515 432.931 226.347 435.118 224.779C437.305 223.211 442.746 221.683 445.315 212.71C447.884 203.738 445.315 197.348 439.913 191.736C434.512 186.123 425.276 190.511 425.276 190.511L424.367 190.194Z" fill="#2A2A2A" stroke="#2A2A2A" stroke-linecap="round" stroke-linejoin="round"/>
<path d="M432.72 197.401C433.575 197.815 434.376 198.332 435.104 198.943" stroke="white" stroke-width="0.75" stroke-linecap="round" stroke-linejoin="round"/>
<path d="M419.294 195.978C423.066 195.315 426.938 195.509 430.625 196.545" stroke="white" stroke-width="0.75" stroke-linecap="round" stroke-linejoin="round"/>
<path d="M371.364 301.365L372.009 299.863C372.655 298.361 379.545 297.083 386.357 296.108C397.384 294.54 402.773 292.775 409.163 291.484C417.068 289.876 425.474 287.834 425.474 287.834C425.474 287.834 439.65 291.049 437.331 295.739C435.012 300.43 428.517 301.325 428.517 301.325H374.684C374.806 301.966 374.686 302.629 374.348 303.186C374.01 303.743 373.477 304.155 372.853 304.343" fill="white"/>
<path d="M371.364 301.365L372.009 299.863C372.655 298.361 379.545 297.083 386.357 296.108C397.384 294.54 402.773 292.775 409.163 291.484C417.068 289.876 425.474 287.834 425.474 287.834C425.474 287.834 439.65 291.049 437.331 295.739C435.012 300.43 428.517 301.325 428.517 301.325H374.684C374.806 301.966 374.686 302.629 374.348 303.186C374.01 303.743 373.477 304.155 372.853 304.343" stroke="#2A2A2A" stroke-linecap="round" stroke-linejoin="round"/>
<path d="M434.287 262.275C434.287 262.275 431.494 274.738 429.768 277.953C428.042 281.168 424.406 280.101 424.617 282.037C424.801 283.367 425.165 284.666 425.697 285.898C425.697 285.898 423.062 285.898 423.062 286.978C423.062 288.058 426.066 291.919 429.94 293.842C433.813 295.766 436.593 297.926 438.306 295.779C440.018 293.631 441.744 289.547 441.534 288.691C441.323 287.834 443.036 289.336 444.538 287.373C445.084 286.684 445.483 285.89 445.71 285.04C445.936 284.19 445.986 283.302 445.855 282.433C445.855 280.72 451.428 266.768 452.074 265.476" fill="#FB463E"/>
<path d="M434.287 262.275C434.287 262.275 431.494 274.738 429.768 277.953C428.042 281.168 424.406 280.101 424.617 282.037C424.801 283.367 425.165 284.666 425.697 285.898C425.697 285.898 423.062 285.898 423.062 286.978C423.062 288.058 426.066 291.919 429.94 293.842C433.813 295.766 436.593 297.926 438.306 295.779C440.018 293.631 441.744 289.547 441.534 288.691C441.323 287.834 443.036 289.336 444.538 287.373C445.084 286.684 445.483 285.89 445.71 285.04C445.936 284.19 445.986 283.302 445.855 282.433C445.855 280.72 451.428 266.768 452.074 265.476" stroke="#2A2A2A" stroke-linecap="round" stroke-linejoin="round"/>
<path d="M430.177 284.383C433.878 284.961 437.508 285.928 441.007 287.268" stroke="#2A2A2A" stroke-width="0.75" stroke-linecap="round" stroke-linejoin="round"/>
<path d="M426.936 283.658C426.936 283.658 430.888 290.153 437.041 291.234" stroke="#2A2A2A" stroke-width="0.75" stroke-linecap="round" stroke-linejoin="round"/>
<path d="M442.522 205.109C442.522 205.109 442.943 211.551 437.37 221.643C431.797 231.735 424.05 251.063 429.637 261.577C435.223 272.09 450.466 269.956 454.761 260.509C459.056 251.063 456.263 227.005 451.757 216.913C447.252 206.821 445.315 203.172 445.315 203.172C445.315 203.172 442.68 201.881 442.522 205.109Z" fill="#2A2A2A" stroke="#2A2A2A" stroke-linecap="round" stroke-linejoin="round"/>
<path d="M444.577 262.96C446.655 262.938 448.661 262.198 450.256 260.865" stroke="white" stroke-width="0.75" stroke-linecap="round" stroke-linejoin="round"/>
<path d="M443.668 209.153C444.838 221.808 443.494 234.569 439.716 246.702C437.304 254.054 437.66 259.073 440.651 261.511" stroke="white" stroke-width="0.75" stroke-linecap="round" stroke-linejoin="round"/>
<path d="M443.009 217.058C443.009 217.058 436.422 233.856 431.152 245.384C425.882 256.912 430.493 264.159 438.398 265.806" stroke="white" stroke-width="0.75" stroke-linecap="round" stroke-linejoin="round"/>
<path d="M420.902 303.025C420.902 303.025 419.927 313.987 421.956 315.502C423.985 317.017 438.662 321.589 448.306 318.545" stroke="#2A2A2A" stroke-linecap="round" stroke-linejoin="round"/>
<path d="M409.294 307.452L418.411 308.98" stroke="#2A2A2A" stroke-linecap="round" stroke-linejoin="round"/>
<path d="M373.498 410.796C376.62 409.479 380.085 403.972 383.471 404.209C387.068 404.42 387.516 402.694 387.516 399.137C387.408 397.669 387 396.238 386.317 394.934C386.225 395.092 386.133 395.237 386.041 395.408C383.945 399.538 380.362 402.72 376.014 404.314C374.222 404.988 372.247 404.988 370.455 404.314L370.033 404.486C369.796 404.736 369.545 404.973 369.282 405.224C368.373 406.054 363.09 409.769 363.696 411.482C364.697 414.275 371.772 411.534 373.498 410.796Z" fill="#FB463E" stroke="#2A2A2A" stroke-linecap="round" stroke-linejoin="round"/>
<path d="M328.874 373.867C327.557 374.341 326.239 374.75 325.067 375.053C320.89 376.173 319.23 377.003 319.797 378.122C320.363 379.242 329.019 381.179 332.879 381.746C336.74 382.312 339.283 381.179 340.402 381.179C341.522 381.179 342.906 382.576 345.132 381.746C347.003 381.034 346.318 376.818 346.054 373.511C343.131 374.45 340.114 375.064 337.056 375.343C331.391 375.791 329.375 374.407 328.874 373.867Z" fill="#FB463E" stroke="#2A2A2A" stroke-linecap="round" stroke-linejoin="round"/>
<path d="M445.196 392.299L445.025 392.167V367.912H448.503V352.576H435.605V367.912H439.096V392.615L408.254 402.444V404.894C408.302 405.6 408.617 406.261 409.134 406.744C409.651 407.227 410.333 407.496 411.04 407.496C411.748 407.496 412.429 407.227 412.946 406.744C413.463 406.261 413.778 405.6 413.827 404.894V404.473L439.623 401.469V405.171C439.623 405.817 439.88 406.437 440.337 406.894C440.794 407.351 441.414 407.608 442.061 407.608C442.707 407.608 443.327 407.351 443.784 406.894C444.241 406.437 444.498 405.817 444.498 405.171V401.35L471.336 404.473V404.828C471.384 405.534 471.699 406.195 472.216 406.678C472.733 407.161 473.414 407.43 474.122 407.43C474.83 407.43 475.511 407.161 476.028 406.678C476.545 406.195 476.86 405.534 476.909 404.828V402.378L445.196 392.299Z" fill="#2A2A2A" stroke="#2A2A2A" stroke-linecap="round" stroke-linejoin="round"/>
<path d="M480.229 337.609H407.107C404.197 337.609 401.837 339.969 401.837 342.879V350.126C401.837 353.036 404.197 355.396 407.107 355.396H480.229C483.139 355.396 485.499 353.036 485.499 350.126V342.879C485.499 339.969 483.139 337.609 480.229 337.609Z" fill="#2A2A2A" stroke="#2A2A2A" stroke-linecap="round" stroke-linejoin="round"/>
<path d="M332.998 298.111H369.177V256.32H332.998V298.111Z" fill="white" stroke="#2A2A2A" stroke-linecap="round" stroke-linejoin="round"/>
<path d="M371.983 299.982H331.127V262.248H350.468L371.983 299.982Z" fill="white" stroke="#2A2A2A" stroke-linecap="round" stroke-linejoin="round"/>
<path d="M322.366 302.09H345.738C346.161 302.052 346.555 301.858 346.842 301.544C347.129 301.231 347.288 300.821 347.288 300.397C347.288 299.972 347.129 299.562 346.842 299.249C346.555 298.935 346.161 298.741 345.738 298.704H322.366C321.807 298.7 321.256 298.582 320.746 298.355C320.236 298.128 319.778 297.798 319.401 297.386C318.944 296.886 318.622 296.277 318.467 295.617C318.313 294.958 318.33 294.269 318.519 293.618L326.806 263.908C326.926 263.477 326.87 263.015 326.651 262.625C326.431 262.234 326.065 261.947 325.633 261.827C325.202 261.706 324.74 261.762 324.349 261.982C323.959 262.202 323.672 262.568 323.552 262.999L315.251 292.709C314.947 293.806 314.9 294.959 315.114 296.077C315.329 297.195 315.799 298.249 316.487 299.156C317.176 300.062 318.065 300.798 319.085 301.304C320.104 301.811 321.227 302.075 322.366 302.076V302.09Z" fill="white" stroke="#2A2A2A" stroke-linecap="round" stroke-linejoin="round"/>
<path d="M333.432 293.294L338.73 292.658L330.522 224.23L325.224 224.866L333.432 293.294Z" fill="white" stroke="#2A2A2A" stroke-linecap="round" stroke-linejoin="round"/>
<path d="M325.264 224.831C320.077 247.907 322.97 272.064 333.459 293.262L325.264 224.831Z" fill="white" stroke="#2A2A2A" stroke-linecap="round" stroke-linejoin="round"/>
<path d="M516.223 301.931H302.458V422.483H516.223V301.931Z" fill="#2A2A2A"/>
<path opacity="0.72" d="M516.223 301.931H302.458V422.483H516.223V301.931Z" fill="white"/>
<path d="M516.223 301.931H302.458V422.483H516.223V301.931Z" stroke="#2A2A2A" stroke-linecap="round" stroke-linejoin="round"/>
<path d="M516.065 304.83H302.564V308.163H516.065V304.83Z" fill="#2A2A2A"/>
<path d="M517.777 299.955H297.794V305.225H517.777V299.955Z" fill="white" stroke="#2A2A2A" stroke-linecap="round" stroke-linejoin="round"/>
<path d="M166.387 289.916L163.093 292.551C163.093 292.551 153.713 297.491 151.894 298.967C150.076 300.443 151.407 301.931 152.395 303.75C153.383 305.568 158.153 307.531 159.799 307.531C161.446 307.531 169.022 303.908 170.181 301.773C171.341 299.639 172.487 292.05 172.487 292.05L166.387 289.916Z" fill="white" stroke="#2A2A2A" stroke-linecap="round" stroke-linejoin="round"/>
<path d="M164.687 297.32L164.2 301.273C164.2 301.273 157.441 305.225 158.1 306.384C158.759 307.544 159.417 307.201 163.37 306.055C167.322 304.909 169.957 302.761 170.129 301.773" stroke="#2A2A2A" stroke-linecap="round" stroke-linejoin="round"/>
<path d="M157.494 296.503L159.141 304.237" stroke="#2A2A2A" stroke-linecap="round" stroke-linejoin="round"/>
<path d="M153.871 298.308L157.336 306.714" stroke="#2A2A2A" stroke-linecap="round" stroke-linejoin="round"/>
<path d="M152.395 299.626C152.395 299.626 153.212 304.237 155.188 305.726" stroke="#2A2A2A" stroke-linecap="round" stroke-linejoin="round"/>
<path d="M167.547 284.646L166.229 290.575L172.487 292.05L175.28 285.463L167.547 284.646Z" fill="#FB463E" stroke="#2A2A2A" stroke-linecap="round" stroke-linejoin="round"/>
<path d="M158.1 217.862C157.562 221.73 157.736 225.663 158.614 229.469C160.089 234.581 166.348 259.943 167.178 261.748C168.008 263.552 167.836 266.359 167.336 269.323C166.835 272.288 168.824 279.376 168.824 279.863C168.824 280.351 166.018 282.34 165.86 284.316C165.702 286.293 168.983 287.61 171.947 287.939C174.911 288.269 176.888 287.939 178.706 279.705C180.524 271.471 175.241 260.43 171.947 247.426C168.653 234.423 164.213 224.858 163.554 222.223C162.896 219.588 159.101 214.818 158.1 217.862Z" fill="#FB463E" stroke="#2A2A2A" stroke-linecap="round" stroke-linejoin="round"/>
<path d="M192.579 397.674C192.579 397.674 195.873 402.061 195.214 403.379C194.555 404.696 187.744 406.673 186.426 407.779C184.487 409.709 182.06 411.075 179.404 411.732C175.227 412.825 165.122 414.578 166.229 412.825C167.336 411.073 179.839 402.061 179.839 402.061C184.007 400.38 188.259 398.915 192.579 397.674V397.674Z" fill="white" stroke="#2A2A2A" stroke-linecap="round" stroke-linejoin="round"/>
<path d="M194.384 402.391C194.384 402.391 186.993 405.026 184.621 406.87C183.219 407.974 181.72 408.948 180.142 409.782" stroke="#2A2A2A" stroke-width="0.75" stroke-linecap="round" stroke-linejoin="round"/>
<path d="M186.202 383.84L192.579 397.674C192.579 397.674 192.355 398.557 188.402 400.309C185.678 401.409 182.776 402.003 179.839 402.061L176.98 391.745L186.202 383.84Z" fill="#2A2A2A" stroke="#2A2A2A" stroke-linecap="round" stroke-linejoin="round"/>
<path d="M175.451 281.299C175.451 281.299 170.392 284.369 170.181 285.687C170.257 287.615 170.549 289.528 171.051 291.392C171.051 291.392 160.735 312.919 157.665 318.4C154.595 323.881 150.195 334.645 154.582 341.457C158.97 348.268 172.158 380.323 172.158 380.323L167.757 404.92L178.956 407.779C178.956 407.779 185.768 389.334 188.179 382.523C190.59 375.712 196.308 358.149 197.19 351.997C198.073 345.844 198.719 337.069 198.943 336.41C199.166 335.752 218.27 307.86 220.905 301.497C223.54 295.133 223.316 281.734 221.999 278.875C220.681 276.016 175.451 281.299 175.451 281.299Z" fill="#2A2A2A" stroke="#2A2A2A" stroke-linecap="round" stroke-linejoin="round"/>
<path d="M188.626 288.756L182.698 291.615L189.061 295.779L179.18 294.461L189.496 298.414" stroke="white" stroke-width="0.75" stroke-linecap="round" stroke-linejoin="round"/>
<path d="M204.871 291.615L192.79 296.437C192.79 296.437 207.941 293.578 214.753 293.802" stroke="#2A2A2A" stroke-linecap="round" stroke-linejoin="round"/>
<path d="M191.038 299.52C191.038 299.52 175.886 332.682 175.886 338.821C175.886 344.961 173.686 378.794 173.686 378.794" stroke="white" stroke-width="0.75" stroke-linecap="round" stroke-linejoin="round"/>
<path d="M178.837 205.793C178.837 205.793 158.587 215.78 158.14 217.862C157.692 219.943 160.076 225.898 160.076 225.898C160.076 225.898 172.579 266.57 173.62 269.85C174.661 273.131 175.109 273.869 174.068 275.502C173.027 277.136 171.683 280.127 173.172 281.76C174.661 283.394 184.648 286.385 191.051 286.385C197.454 286.385 208.929 284.448 216.373 282.656C223.817 280.865 223.527 277.597 223.224 274.172C222.921 270.746 218.613 212.051 218.613 209.812C218.613 207.572 202.803 204.305 197.454 204.002C192.105 203.699 180.629 204.002 178.837 205.793Z" fill="#FB463E" stroke="#2A2A2A" stroke-linecap="round" stroke-linejoin="round"/>
<path d="M181.025 215.938L186.15 230.431L194.384 215.741C194.384 215.741 192.157 208.626 186.15 209.074C180.142 209.522 181.025 215.938 181.025 215.938Z" fill="#2A2A2A" stroke="#2A2A2A" stroke-linecap="round" stroke-linejoin="round"/>
<path d="M186.15 230.404C186.15 230.404 183.515 270.68 183.515 272.683C183.515 274.685 181.512 281.141 181.512 281.141L185.965 286.253C185.965 286.253 193.08 281.141 194.199 277.36C195.319 273.579 186.15 230.404 186.15 230.404Z" fill="#2A2A2A" stroke="#2A2A2A" stroke-linecap="round" stroke-linejoin="round"/>
<path d="M178.837 204.449C178.837 204.449 177.796 210.708 178.389 213.395C178.982 216.083 176.453 222.183 177.652 222.921C178.85 223.659 182.856 215.622 182.856 215.622L187.335 223.224L190.313 215.174C190.313 215.174 194.476 223.369 195.675 222.631C196.874 221.893 194.924 216.821 196.716 214.291C197.655 212.722 198.257 210.974 198.484 209.16C198.711 207.345 198.557 205.503 198.033 203.751C196.979 199.733 192.671 199.733 189.087 200.168C185.504 200.602 181.367 200.576 178.837 204.449Z" fill="#FB463E" stroke="#2A2A2A" stroke-linecap="round" stroke-linejoin="round"/>
<path d="M178.837 205.793C178.837 205.793 183.607 212.381 184.503 215.477C185.399 218.573 186.729 225.16 187.335 223.224C187.941 221.287 187.625 213.843 191.209 209.667C194.792 205.49 193.844 202.513 193.844 202.513C193.844 202.513 189.272 208.165 178.837 205.793Z" fill="white" stroke="#2A2A2A" stroke-linecap="round" stroke-linejoin="round"/>
<path d="M169.312 193.883C169.312 193.883 175.109 205.345 181.077 208.376C187.045 211.406 193.29 208.231 194.924 203.619C196.558 199.008 195.069 193.079 195.069 193.079C195.069 193.079 198.349 191.143 198.797 188.613C199.245 186.084 199.693 185.188 196.268 183.251C194.952 182.41 193.552 181.708 192.091 181.156C192.091 181.156 191.946 176.097 188.969 174.463C185.991 172.83 179.746 173.712 176.005 177.731C172.263 181.749 169.312 193.883 169.312 193.883Z" fill="white" stroke="#2A2A2A" stroke-linecap="round" stroke-linejoin="round"/>
<path d="M179.18 192.684C180.218 194.163 181.068 195.765 181.71 197.454C182.013 198.942 180.814 200.734 182.605 200.734C183.134 200.734 183.657 200.628 184.143 200.422C184.63 200.216 185.07 199.914 185.438 199.535" stroke="#2A2A2A" stroke-linecap="round" stroke-linejoin="round"/>
<path d="M182.553 188.165C182.553 188.165 183.304 185.53 186.782 186.044" stroke="#2A2A2A" stroke-linecap="round" stroke-linejoin="round"/>
<path d="M176.822 190.524C176.822 190.524 174.187 189.786 171.71 192.895" stroke="#2A2A2A" stroke-linecap="round" stroke-linejoin="round"/>
<path d="M183.791 200.747L184.793 203.712C186.222 203.431 187.543 202.749 188.599 201.746C189.656 200.743 190.406 199.46 190.761 198.046" stroke="#2A2A2A" stroke-linecap="round" stroke-linejoin="round"/>
<path d="M179.878 195.741C179.878 196.551 179.638 197.343 179.188 198.017C178.737 198.691 178.097 199.216 177.349 199.526C176.6 199.836 175.776 199.918 174.981 199.759C174.187 199.601 173.457 199.211 172.883 198.638C172.31 198.065 171.92 197.335 171.762 196.54C171.604 195.745 171.685 194.921 171.995 194.173C172.305 193.424 172.831 192.784 173.504 192.334C174.178 191.884 174.97 191.643 175.781 191.643C176.319 191.643 176.852 191.749 177.349 191.955C177.846 192.161 178.298 192.463 178.678 192.843C179.059 193.224 179.36 193.676 179.566 194.173C179.772 194.67 179.878 195.203 179.878 195.741V195.741Z" stroke="#2A2A2A" stroke-width="0.5" stroke-linecap="round" stroke-linejoin="round"/>
<path d="M190.155 190.155L194.634 186.136" stroke="#2A2A2A" stroke-width="0.5" stroke-linecap="round" stroke-linejoin="round"/>
<path d="M190.313 191.419C190.313 192.23 190.072 193.022 189.622 193.696C189.172 194.37 188.532 194.895 187.783 195.205C187.035 195.515 186.211 195.596 185.416 195.438C184.621 195.28 183.891 194.89 183.318 194.317C182.745 193.744 182.355 193.014 182.197 192.219C182.039 191.424 182.12 190.6 182.43 189.851C182.74 189.103 183.265 188.463 183.939 188.013C184.613 187.562 185.405 187.322 186.215 187.322C187.302 187.322 188.344 187.754 189.113 188.522C189.881 189.291 190.313 190.333 190.313 191.419V191.419Z" stroke="#2A2A2A" stroke-width="0.5" stroke-linecap="round" stroke-linejoin="round"/>
<path d="M187.427 190.958C187.638 191.419 187.559 191.92 187.243 192.065C186.927 192.21 186.505 191.933 186.294 191.459C186.084 190.985 186.163 190.497 186.479 190.352C186.795 190.207 187.217 190.484 187.427 190.958Z" fill="#2A2A2A"/>
<path d="M178.258 194.634C178.468 195.108 178.389 195.609 178.073 195.741C177.757 195.873 177.335 195.622 177.124 195.148C176.914 194.674 176.993 194.186 177.309 194.041C177.625 193.896 178.047 194.16 178.258 194.634Z" fill="#2A2A2A"/>
<path d="M179.18 194.173C179.18 194.173 180.814 192.091 182.302 192.987" stroke="#2A2A2A" stroke-width="0.5" stroke-linecap="round" stroke-linejoin="round"/>
<path d="M181.67 180.497C181.67 180.497 176.611 186.005 172.737 191.037C171.337 193.033 169.791 194.922 168.113 196.689C167.193 194.992 166.396 193.231 165.728 191.419C165.255 190 164.71 188.606 164.094 187.243L162.777 190.221C162.777 190.221 158.904 175.728 163.08 169.075C167.256 162.421 176.69 160.669 183.844 163.199C190.998 165.728 191.973 172.355 193.317 175.781C194.66 179.206 195.846 183.514 195.846 183.514L193.91 187.691C193.91 187.691 190.339 184.568 188.547 182.922C187.432 181.857 186.611 180.523 186.163 179.048C186.163 179.048 183.185 182.632 182.289 183.673C181.808 184.251 181.193 184.704 180.497 184.99L181.67 180.497Z" fill="#2A2A2A" stroke="#2A2A2A" stroke-linecap="round" stroke-linejoin="round"/>
<path d="M183.053 166.44C181.436 173.09 178.075 179.188 173.317 184.107" stroke="white" stroke-width="0.75" stroke-linecap="round" stroke-linejoin="round"/>
<path d="M184.858 167.52C185.206 171.341 184.585 175.188 183.053 178.706" stroke="white" stroke-width="0.75" stroke-linecap="round" stroke-linejoin="round"/>
<path d="M217.387 208.363C217.387 208.363 223.132 209.865 225.134 212.618C227.137 215.372 240.628 253.355 241.129 259.85C241.629 266.346 239.627 279.837 240.128 281.339C240.628 282.841 242.13 284.843 240.628 285.594C239.262 286.438 238.001 287.442 236.873 288.585C233.612 288.426 230.362 288.092 227.137 287.584C225.635 287.083 223.632 283.842 225.134 281.84C226.222 280.493 226.838 278.827 226.887 277.097C226.887 276.095 223.764 263.803 223.764 261.287C223.773 258.998 223.65 256.71 223.395 254.436C222.515 250.773 221.433 247.162 220.154 243.619C216.144 236.339 214.152 228.12 214.384 219.812" fill="#FB463E"/>
<path d="M217.387 208.363C217.387 208.363 223.132 209.865 225.134 212.618C227.137 215.372 240.628 253.355 241.129 259.85C241.629 266.346 239.627 279.837 240.128 281.339C240.628 282.841 242.13 284.843 240.628 285.594C239.262 286.438 238.001 287.442 236.873 288.585C233.612 288.426 230.362 288.092 227.137 287.584C225.635 287.083 223.632 283.842 225.134 281.84C226.222 280.493 226.838 278.827 226.887 277.097C226.887 276.095 223.764 263.803 223.764 261.287C223.773 258.998 223.65 256.71 223.395 254.436C222.515 250.773 221.433 247.162 220.154 243.619C216.144 236.339 214.152 228.12 214.384 219.812" stroke="#2A2A2A" stroke-linecap="round" stroke-linejoin="round"/>
<path d="M227.19 287.584L226.689 292.34L234.937 293.578L236.926 288.585L227.19 287.584Z" fill="#FB463E" stroke="#2A2A2A" stroke-linecap="round" stroke-linejoin="round"/>
<path d="M226.689 292.34C226.689 292.34 217.19 296.582 216.439 297.834C215.688 299.085 214.186 305.08 213.185 305.831C212.183 306.582 211.195 307.583 213.936 307.333C216.676 307.083 217.44 305.581 217.44 305.581C217.31 306.503 217.31 307.439 217.44 308.361C219.499 308.61 221.571 308.738 223.646 308.743C224.266 308.825 224.895 308.825 225.516 308.743C225.516 308.743 225.016 309.942 225.951 310.337C226.887 310.732 226.834 309.836 227.44 309.019C228.169 307.66 228.79 306.246 229.298 304.79C229.603 304.049 229.824 303.275 229.956 302.485C231.46 301.672 232.833 300.637 234.027 299.415C235.345 297.821 234.633 293.209 234.633 293.209L226.689 292.34Z" fill="white" stroke="#2A2A2A" stroke-linecap="round" stroke-linejoin="round"/>
<path d="M217.44 305.581L217.941 299.296" stroke="#2A2A2A" stroke-linecap="round" stroke-linejoin="round"/>
<path d="M219.917 308.69L220.734 299.797" stroke="#2A2A2A" stroke-linecap="round" stroke-linejoin="round"/>
<path d="M223.04 308.519L224.357 300.284" stroke="#2A2A2A" stroke-linecap="round" stroke-linejoin="round"/>
<path d="M225.569 308.69C225.569 308.69 226.663 301.602 226.887 300.785" stroke="#2A2A2A" stroke-linecap="round" stroke-linejoin="round"/>
<path d="M167.757 404.92C167.757 404.92 164.029 408.214 163.37 408.649C162.711 409.084 150.63 415.684 150.854 417.437C151.078 419.189 163.594 418.319 170.616 416.554C177.638 414.789 178.086 414.143 178.297 413.049C178.508 411.956 178.956 407.779 178.956 407.779L167.757 404.92Z" fill="white" stroke="#2A2A2A" stroke-linecap="round" stroke-linejoin="round"/>
<path d="M153.238 416.633C153.238 416.633 169.852 416.369 176.453 412.153" stroke="#2A2A2A" stroke-width="0.75" stroke-linecap="round" stroke-linejoin="round"/>
<path d="M78.3385 407.029C78.3385 407.029 92.3567 410.81 95.7032 413.708C99.0496 416.607 89.0235 417.489 82.7917 417.265C76.5599 417.041 75.9012 415.263 71.448 415.263C66.9949 415.263 62.9897 417.266 62.3178 413.26C61.6458 409.255 67.2188 407.7 71.0001 406.805C73.4286 406.287 75.9461 406.364 78.3385 407.029V407.029Z" fill="white" stroke="#2A2A2A" stroke-linecap="round" stroke-linejoin="round"/>
<path d="M74.2937 413.471C74.2937 413.471 81.1579 417.951 93.2921 415.316" stroke="#2A2A2A" stroke-width="0.75" stroke-linecap="round" stroke-linejoin="round"/>
<path d="M64.3203 409.255C67.7242 411.461 71.2969 413.395 75.0052 415.039C79.9063 417.042 83.4636 417.674 81.237 419.492C79.0104 421.31 78.3385 421.495 72.7786 422.601C67.2188 423.708 56.0859 420.823 54.9792 420.823C53.8725 420.823 52.7526 422.14 49.7092 421.047C46.6658 419.953 46.152 418.412 47.2587 414.815C48.3654 411.218 62.5417 408.135 64.3203 409.255Z" fill="white" stroke="#2A2A2A" stroke-linecap="round" stroke-linejoin="round"/>
<path d="M52.937 418.478C61.3468 421.453 70.4755 421.729 79.0499 419.268" stroke="#2A2A2A" stroke-width="0.75" stroke-linecap="round" stroke-linejoin="round"/>
<path d="M95.2552 255.055L97.8902 283.091C97.8902 283.091 94.0958 323.367 89.4319 336.49C84.7679 349.612 80.5256 364.078 78.9709 369.427C77.4163 374.776 75.8616 395.685 77.1923 399.901C77.9428 401.892 78.318 404.005 78.299 406.133V407.029C78.299 407.029 79.1949 407.7 76.0724 409.479C73.8394 410.65 71.4401 411.472 68.9579 411.916L64.2808 409.281C64.2808 409.281 57.6142 414.169 55.1637 415.513C52.5923 416.573 49.9029 417.321 47.1533 417.74C46.1306 416.128 45.5323 414.283 45.4142 412.378V403.708C45.4142 400.586 43.1876 385.263 43.4116 375.896C43.6356 366.529 45.4142 356.305 47.1928 351.641C48.9714 346.977 54.9792 332.722 54.9792 332.722C54.6882 326.685 53.7159 320.701 52.0807 314.883C49.1954 303.539 48.5235 297.755 44.7423 285.516C40.961 273.276 48.5235 255.213 48.5235 255.213C48.5235 255.213 66.0989 258.322 75.6772 257.848C82.2695 257.463 88.8182 256.528 95.2552 255.055Z" fill="#2A2A2A" stroke="#2A2A2A" stroke-linecap="round" stroke-linejoin="round"/>
<path d="M61.9224 279.086C62.8952 280.81 64.0101 282.449 65.2556 283.987" stroke="white" stroke-width="0.75" stroke-linecap="round" stroke-linejoin="round"/>
<path d="M73.8984 261.959L81.2369 262.183L81.0129 260.391" stroke="white" stroke-width="0.75" stroke-linecap="round" stroke-linejoin="round"/>
<path d="M83.9116 260.865V262.644C83.9116 262.644 90.1302 264.211 95.0313 261.537" stroke="white" stroke-width="0.75" stroke-linecap="round" stroke-linejoin="round"/>
<path d="M91.026 264.818L89.2474 271.721L92.1327 275.674C92.1327 275.674 87.9167 283.012 87.9167 283.684" stroke="white" stroke-width="0.75" stroke-linecap="round" stroke-linejoin="round"/>
<path d="M92.3566 285.094L85.0181 291.168C85.0181 291.168 80.565 328.993 78.1144 338.782C75.6639 348.571 66.5468 380.389 65.4401 387.53C64.8194 390.987 64.3796 394.474 64.1226 397.977C64.1226 398.649 65.4401 401.1 65.4401 402.431V407.556" stroke="white" stroke-width="0.75" stroke-linecap="round" stroke-linejoin="round"/>
<path d="M70.552 259.06C70.552 259.06 83.9115 260.839 89.9193 260.378C95.9271 259.916 96.8098 257.492 97.4817 255.266C98.1536 253.039 89.4713 200.089 89.0234 196.966C88.5754 193.844 89.2473 188.732 85.0709 186.953C80.8944 185.175 71.8959 188.271 70.3807 194.305C68.8656 200.339 73.7272 235.24 72.3833 242.802C71.4894 248.186 70.8781 253.612 70.552 259.06V259.06Z" fill="white" stroke="#2A2A2A" stroke-linecap="round" stroke-linejoin="round"/>
<path d="M82.1196 197.427L85.4661 203.435L86.5728 253.276L90.578 262.841L93.9112 251.05L87.4687 202.987L88.3514 195.873L85.6901 190.089L82.1196 197.427Z" fill="#2A2A2A" stroke="#2A2A2A" stroke-linecap="round" stroke-linejoin="round"/>
<path d="M86.5729 194.977L90.5781 201.881L88.5755 189.193L84.5703 191.644L86.5729 194.977Z" fill="white" stroke="#2A2A2A" stroke-linecap="round" stroke-linejoin="round"/>
<path d="M76.7839 175.399L75.6772 180.511L84.7943 196.755C84.7943 196.755 87.5216 190.695 88.5756 189.193C89.6296 187.691 93.8456 181.09 93.8456 181.09C93.8456 181.09 87.0868 181.631 85.9406 177.625C84.7943 173.62 85.9406 168.06 81.7114 167.612C77.4822 167.164 76.7839 175.399 76.7839 175.399Z" fill="white" stroke="#2A2A2A" stroke-linecap="round" stroke-linejoin="round"/>
<path d="M81.2108 172.25L81.6455 173.752C81.4064 174.492 81.3368 175.277 81.4417 176.048C81.5466 176.818 81.8234 177.556 82.2516 178.205C83.7272 180.089 92.0143 184.635 95.6374 183.567C99.2605 182.5 100.367 171.987 100.367 171.987C100.367 171.987 103.832 171.907 103.477 169.918C103.121 167.929 101.105 165.755 100.842 163.489C100.578 161.223 101.856 160.643 101.329 158.021C100.996 155.413 99.6404 153.043 97.561 151.434C95.1631 149.589 82.054 155.505 78.1673 159.655C74.2807 163.805 73.477 168.205 74.4388 170.709C75.4006 173.212 81.2108 172.25 81.2108 172.25Z" fill="white" stroke="#2A2A2A" stroke-linecap="round" stroke-linejoin="round"/>
<path d="M97.9692 164.49C97.9692 165.307 97.6135 165.939 97.2841 165.926C96.9547 165.913 96.7439 165.228 96.7966 164.424C96.8493 163.62 97.1523 162.975 97.4817 162.988C97.8111 163.001 98.0219 163.686 97.9692 164.49Z" fill="#2A2A2A"/>
<path d="M98.8916 160.735C98.8916 160.735 97.2316 159.207 95.5452 161.71" stroke="#2A2A2A" stroke-linecap="round" stroke-linejoin="round"/>
<path d="M95.848 175.228C95.0265 175.004 94.3087 174.501 93.8191 173.805" stroke="#2A2A2A" stroke-linecap="round" stroke-linejoin="round"/>
<path d="M82.8313 162.738L82.3965 166.809L84.9657 166.058C84.9657 166.058 83.6482 169.246 85.4663 167.771C87.2845 166.295 89.8536 161.381 90.6573 160.92C91.4609 160.458 95.9273 156.124 99.0366 153.133C102.146 150.142 103.463 146.058 102.409 144.042C101.355 142.027 88.602 133.239 76.9553 139.418C65.3086 145.597 62.1597 154.635 63.385 159.615C64.6103 164.595 73.925 177.612 75.6509 177.81C77.3769 178.008 81.2108 172.25 81.2108 172.25C81.2108 172.25 76.1911 170.933 77.2583 168.785C78.3255 166.637 82.8313 162.738 82.8313 162.738Z" fill="#2A2A2A" stroke="#2A2A2A" stroke-linecap="round" stroke-linejoin="round"/>
<path d="M75.2293 163.844C73.7064 164.927 72.1032 165.891 70.4336 166.73" stroke="white" stroke-width="0.75" stroke-linecap="round" stroke-linejoin="round"/>
<path d="M96.0062 142.356C91.3185 148.785 85.9759 154.711 80.0645 160.037" stroke="white" stroke-width="0.75" stroke-linecap="round" stroke-linejoin="round"/>
<path d="M71.7114 160.524C71.2107 160.986 70.6969 161.46 70.1567 161.934" stroke="white" stroke-width="0.75" stroke-linecap="round" stroke-linejoin="round"/>
<path d="M86.4015 142.909C82.9652 148.418 78.8924 153.504 74.2673 158.06" stroke="white" stroke-width="0.75" stroke-linecap="round" stroke-linejoin="round"/>
<path d="M75.2292 178.732L86.5729 194.977L78.3385 203.211L72.5547 180.959L75.2292 178.732Z" fill="white" stroke="#2A2A2A" stroke-linecap="round" stroke-linejoin="round"/>
<path d="M69.4454 182.302L53.8725 187.414C53.8725 187.414 41.633 245.714 40.6975 247.268C39.7621 248.823 23.794 277.571 25.7966 280.641C27.7992 283.71 46.8766 294 48.484 293.328C50.0913 292.656 61.3955 271.076 68.2465 264.844C75.0975 258.612 82.1198 250.826 83.0025 242.156L76.9947 216.557L76.3228 200.537L69.4454 182.302Z" fill="#FB463E" stroke="#2A2A2A" stroke-linecap="round" stroke-linejoin="round"/>
<path d="M73.8985 180.959L69.4453 182.303L68.3254 204.107L75.9011 208.336L71.4479 215.003L83.0156 242.157L78.3384 200.102L73.8985 180.959Z" fill="#FB463E" stroke="#2A2A2A" stroke-linecap="round" stroke-linejoin="round"/>
<path d="M59.4982 275.055L41.7251 290.522C41.7251 290.522 43.4774 292.63 48.5234 293.328C48.5234 293.328 56.4284 282.525 59.4982 275.055Z" fill="#FB463E" stroke="#2A2A2A" stroke-linecap="round" stroke-linejoin="round"/>
<path d="M62.3176 262.183C65.2965 262.233 68.27 262.453 71.2239 262.841C72.7786 263.289 78.7864 269.521 78.7864 269.521C78.7864 269.521 78.7864 270.193 76.5598 270.839C74.3332 271.484 70.328 268.612 70.328 268.612L61.6589 276.846L56.3098 270.18L62.3176 262.183Z" fill="white" stroke="#2A2A2A" stroke-linecap="round" stroke-linejoin="round"/>
<path d="M61.659 259.732L63.6616 262.393L56.31 270.18L55.4272 267.294L61.659 259.732Z" fill="white" stroke="#2A2A2A" stroke-linecap="round" stroke-linejoin="round"/>
<path d="M67.1926 184.081C67.1926 184.081 46.2707 184.081 44.716 185.86C43.1614 187.638 26.6926 237.479 26.6926 240.365C26.6926 243.25 54.953 269.745 54.953 269.745L62.9634 259.956L46.969 234.805L59.6565 207.44" fill="#FB463E"/>
<path d="M67.1926 184.081C67.1926 184.081 46.2707 184.081 44.716 185.86C43.1614 187.638 26.6926 237.479 26.6926 240.365C26.6926 243.25 54.953 269.745 54.953 269.745L62.9634 259.956L46.969 234.805L59.6565 207.44" stroke="#2A2A2A" stroke-linecap="round" stroke-linejoin="round"/>
</g>
<defs>
<clipPath id="clip0">
<rect width="527" height="438.728" fill="white"/>
</clipPath>
</defs>
</svg>
